<?xml version="1.0" encoding="utf-8"?>
<!-- Generator: Adobe Illustrator 22.0.1, SVG Export Plug-In . SVG Version: 6.00 Build 0)  -->
<svg version="1.1" id="Layer_1" xmlns="http://www.w3.org/2000/svg" xmlns:xlink="http://www.w3.org/1999/xlink" x="0px" y="0px"
	 viewBox="0 0 708.6 425.3" style="enable-background:new 0 0 708.6 425.3;" xml:space="preserve">
<style type="text/css">
	.st0{display:none;fill:#2F0743;}
	.st1{opacity:6.000000e-02;}
	.st2{fill:#FFFFFF;}
</style>
<rect class="st0" width="708.7" height="425.2"/>
<g class="st1">
	<path class="st2" d="M332.4,4.7c3.2,0,6.3-1.7,8.9-4.7h-17.6C325.8,2.9,328.9,4.7,332.4,4.7z"/>
	<path class="st2" d="M694,4.7c3.2,0,6.3-1.7,8.9-4.7h-17.6C687.3,2.9,690.4,4.7,694,4.7z"/>
	<path class="st2" d="M251.3,4.6c1.6-1.2,2.7-2.8,3.3-4.6h-21.5C236.3,3.8,244.8,9.4,251.3,4.6z"/>
	<path class="st2" d="M612.9,4.6c1.6-1.2,2.7-2.8,3.3-4.6h-21.5C597.9,3.8,606.4,9.4,612.9,4.6z"/>
	<path class="st2" d="M156.6,13.7c3.6,0,8.7-1.7,11.5-5.3c1.4-1.8,2.1-3.9,2.1-6.1c0-0.8-0.1-1.5-0.2-2.2h-24.2
		c-0.1,0.5-0.1,1-0.1,1.5C145.6,8.5,150.3,13.7,156.6,13.7z"/>
	<path class="st2" d="M518.1,13.7c3.6,0,8.7-1.7,11.5-5.3c1.4-1.8,2.1-3.9,2.1-6.1c0-0.8-0.1-1.5-0.2-2.2h-24.2
		c-0.1,0.5-0.1,1-0.1,1.5C507.2,8.5,511.9,13.7,518.1,13.7z"/>
	<path class="st2" d="M286.2,17.5c6,0,12.9-5.5,12.9-12.5c0-1.9-0.5-3.5-1.2-5h-21.6c-0.7,1.5-1.1,3.2-1.1,5
		C275.2,12,280,17.5,286.2,17.5z"/>
	<path class="st2" d="M647.8,17.5c5.9,0,12.9-5.5,12.9-12.5c0-1.9-0.5-3.5-1.2-5h-21.6c-0.7,1.5-1.1,3.2-1.1,5
		C636.8,12,641.6,17.5,647.8,17.5z"/>
	<path class="st2" d="M113.6,26c0-7-6.4-11.7-12.3-11.7c-6.4,0-11.6,5.3-11.6,11.7c0,7,4.8,12.5,11,12.5
		C106.6,38.5,113.6,32.9,113.6,26z"/>
	<path class="st2" d="M451.2,26c0,7,4.8,12.5,11,12.5c6,0,12.9-5.5,12.9-12.5s-6.4-11.7-12.3-11.7C456.4,14.2,451.2,19.5,451.2,26z"
		/>
	<path class="st2" d="M34.1,32.8c1.2-1.7,3.3-5,3.3-8.7c0-2.7-1-5.2-2.8-7c-3.1-3-6.9-2.9-8.9-2.9c-0.2,0-0.4,0-0.6,0
		c-6.4,0-11.6,5.3-11.6,11.7c0,7,4.8,12.5,11,12.5C28,38.5,31.3,36.5,34.1,32.8z"/>
	<path class="st2" d="M375,26c0,7,4.8,12.5,11,12.5c3.6,0,6.9-2,9.6-5.7c1.2-1.7,3.3-5,3.3-8.7c0-2.7-1-5.2-2.8-7
		c-3.1-3-6.9-2.9-8.9-2.9c-0.2,0-0.4,0-0.6,0C380.2,14.2,375,19.5,375,26z"/>
	<path class="st2" d="M204.7,35.2c0-5.4-4.1-10.8-11.9-10.8h-0.2c-1.3,0-3.1,0-5,0.5c-4.5,1.3-7.5,5-7.5,9.6c0,6.9,4.7,12.2,11,12.2
		C196.6,46.7,204.7,43,204.7,35.2z"/>
	<path class="st2" d="M541.7,34.5c0,6.9,4.7,12.2,11,12.2c5.5,0,13.6-3.6,13.6-11.4c0-5.4-4.1-10.8-11.9-10.8h-0.2
		c-1.3,0-3.1,0-5,0.5C544.7,26.2,541.7,30,541.7,34.5z"/>
	<path class="st2" d="M347.5,38.5c0-0.2,0-0.4,0-0.7c0-1.9,0.1-5.8-2.8-8.9c-1.8-1.9-4.2-2.9-6.9-2.9h-0.2c-1.3,0-3.1,0-5,0.5
		c-4.5,1.3-7.4,5-7.4,9.6c0,5,4.3,14.7,12.3,14.7c4.4,0,8.1-2.8,9.4-7.2C347.5,41.7,347.5,39.9,347.5,38.5z"/>
	<path class="st2" d="M699,50.8c-7.9,0-12.3-9.7-12.3-14.7c0-4.6,2.9-8.3,7.4-9.6c1.9-0.5,3.7-0.5,5-0.5h0.2c2.7,0,5.1,1,6.9,2.9
		c1.3,1.4,2.1,3,2.4,4.4v9.4c-0.1,0.3-0.1,0.6-0.2,0.9C707.1,48,703.4,50.8,699,50.8z"/>
	<path class="st2" d="M227.5,37.7c-1.8,1.8-2.8,4.2-2.8,6.7c0,6.5,5.8,12.5,12.1,12.5c4,0,7.3-2.5,8.9-4c2.1-2,4.7-5.2,4.7-9.4
		c0-4-2.1-6.3-3.3-7.3c-3.4-2.8-7.2-2-8.6-1.7c-0.1,0-0.2,0-0.3,0.1c-0.1,0-0.3,0-0.4,0C235.2,34.6,230.7,34.5,227.5,37.7z"/>
	<path class="st2" d="M599.8,34.6c-0.1,0-0.3,0-0.4,0c-2.6-0.1-7.1-0.1-10.3,3.1c-1.8,1.8-2.8,4.2-2.8,6.7c0,6.5,5.8,12.5,12.1,12.5
		c4,0,7.3-2.5,8.9-4c2.1-2,4.7-5.2,4.7-9.4c0-2.9-1.2-5.5-3.3-7.3c-3.4-2.8-7.2-2-8.6-1.7C600,34.6,599.9,34.6,599.8,34.6z"/>
	<path class="st2" d="M136.6,70.7c5.9,0,12.9-5.5,12.9-12.5s-6.4-11.7-12.3-11.7c-6.4,0-11.6,5.3-11.6,11.7
		C125.5,65.2,130.4,70.7,136.6,70.7z"/>
	<path class="st2" d="M487.1,58.2c0,7,4.8,12.5,11,12.5c5.9,0,12.9-5.5,12.9-12.5s-6.4-11.7-12.3-11.7
		C492.3,46.5,487.1,51.8,487.1,58.2z"/>
	<path class="st2" d="M288.8,71.3c5.1,0,14.7-5.1,14.7-13c0-5.4-4.1-10.8-11.9-10.8c-5,0-14.7,3.6-14.7,11.9
		C276.9,65.9,282.3,71.3,288.8,71.3z"/>
	<path class="st2" d="M638.5,59.4c0,6.5,5.4,11.9,11.9,11.9c5.1,0,14.7-5.1,14.7-13c0-5.4-4.1-10.8-11.9-10.8
		C648.2,47.5,638.5,51.1,638.5,59.4z"/>
	<path class="st2" d="M67.7,68.4c0.8-1.3,2.6-4.5,2.6-8.1c0-2.8-1-5.3-2.8-7.1c-2.9-2.9-6.6-2.9-8.4-2.9h-0.4c-3.6,0-7,2-9.3,5.5
		c-1.6,2.4-2.6,5.3-2.6,7.9c0,5.2,3.6,10.8,11.3,10.8C60.3,74.6,64.4,73.8,67.7,68.4z"/>
	<path class="st2" d="M429.3,68.4c0.8-1.3,2.6-4.5,2.6-8.1c0-2.8-1-5.3-2.8-7.1c-2.9-2.9-6.6-2.9-8.4-2.9h-0.4c-3.6,0-7,2-9.3,5.5
		c-1.6,2.4-2.6,5.3-2.6,7.9c0,5.2,3.6,10.8,11.3,10.8C421.8,74.6,426,73.8,429.3,68.4z"/>
	<path class="st2" d="M345.6,75.2c0-5.4-4.1-10.8-11.9-10.8h-0.2c-2.3,0-6.5,0-9.6,3.2c-1.8,1.8-2.8,4.3-2.8,6.9
		c0,6.9,4.7,12.2,11,12.2C337.5,86.7,345.6,83,345.6,75.2z"/>
	<path class="st2" d="M180.2,86.5c0,3.1,1,6.2,2.8,8.4c2.1,2.6,5,4.1,8.2,4.1c3.1,0,5.6-1.3,7.2-2.5c3.6-2.5,5.7-6.3,5.7-10
		c0-7-6.4-11.7-12.3-11.7C185.4,74.8,180.2,80.1,180.2,86.5z"/>
	<path class="st2" d="M541.7,86.5c0,3.1,1,6.2,2.8,8.4c2.1,2.6,5,4.1,8.2,4.1c3.1,0,5.6-1.3,7.2-2.5c3.6-2.5,5.7-6.3,5.7-10
		c0-7-6.4-11.7-12.3-11.7C546.9,74.8,541.7,80.1,541.7,86.5z"/>
	<path class="st2" d="M265.9,78.7h-0.2c-1.3,0-3.1,0-5,0.5c-4.5,1.3-7.4,5-7.4,9.6c0,0.8,0.1,1.7,0.2,2.5c1,5.7,5.4,9.7,10.7,9.7
		c4.4,0,12-2.6,13.4-9.5c0.1-0.7,0.2-1.3,0.2-1.9C277.8,84.1,273.7,78.7,265.9,78.7z"/>
	<path class="st2" d="M614.8,88.8c0,0.8,0.1,1.7,0.2,2.5c1,5.7,5.4,9.7,10.7,9.7c4.4,0,12-2.6,13.4-9.5c0.1-0.7,0.2-1.3,0.2-1.9
		c0-5.4-4.1-10.8-11.9-10.8h-0.2c-1.3,0-3.1,0-5,0.5C617.7,80.4,614.8,84.2,614.8,88.8z"/>
	<path class="st2" d="M117,90.5v-0.8c-0.1-11.6-9-11.9-10-11.9c-6.6,0-11.8,5-11.8,11.3c0,0.1,0,0.3,0,0.4v0.1c0,0.3,0,0.6,0,0.9
		c0,2.2,0.3,5.4,2.9,8.1c1.8,1.9,4.2,2.9,6.9,2.9C111.8,101.5,117,96.8,117,90.5z"/>
	<path class="st2" d="M468.5,77.8c-6.6,0-11.8,5-11.8,11.3c0,0.2,0,0.3,0,0.6c0,0.3,0,0.6,0,0.9c0,2.2,0.3,5.4,2.9,8.1
		c1.8,1.9,4.2,2.9,6.9,2.9c6.9,0,12.1-4.8,12.1-11.1v-0.8C478.4,78.2,469.5,77.8,468.5,77.8z"/>
	<path class="st2" d="M16.8,92.9c0-4.6-2.9-8.8-7.5-10.7c-1.6-0.7-3.2-1-4.8-1S1.4,81.5,0,82.1v21c1.3,0.5,2.6,0.7,4,0.7
		C11.4,103.8,16.8,99.2,16.8,92.9z"/>
	<path class="st2" d="M365.6,103.8c7.4,0,12.8-4.6,12.8-10.9c0-4.6-2.9-8.8-7.5-10.7c-1.6-0.7-3.2-1-4.8-1c-2,0-3.9,0.5-5.6,1.5
		c-3.4,2-5.3,5.6-5.3,9.9C355.1,100.3,360.4,103.8,365.6,103.8z"/>
	<path class="st2" d="M313.6,112.1c6,0,12.9-5.5,12.9-12.5s-6.4-11.7-12.3-11.7c-6.4,0-11.6,5.3-11.6,11.7
		C302.5,106.6,307.4,112.1,313.6,112.1z"/>
	<path class="st2" d="M664.1,99.6c0,7,4.8,12.5,11,12.5c6,0,12.9-5.5,12.9-12.5s-6.4-11.7-12.3-11.7
		C669.3,87.8,664.1,93.1,664.1,99.6z"/>
	<path class="st2" d="M508.5,99.6c0,7,4.8,12.5,11,12.5c3.4,0,7-1.7,9.6-4.6c2.1-2.3,3.3-5.1,3.3-7.9c0-3.1-1.3-6.1-3.8-8.3
		c-2.4-2.2-5.5-3.4-8.6-3.4C513.7,87.8,508.5,93.1,508.5,99.6z"/>
	<path class="st2" d="M399.8,122.9c5.9,0,12.9-5.5,12.9-12.5s-6.4-11.7-12.3-11.7c-6.4,0-11.6,5.3-11.6,11.7
		C388.8,117.4,393.6,122.9,399.8,122.9z"/>
	<path class="st2" d="M229.6,129.1c5.5,0,13.6-3.6,13.6-11.5c0-6.3-5.5-11.4-12.3-11.4c-8.4,0-12.3,5.6-12.3,10.7
		C218.7,123.9,223.4,129.1,229.6,129.1z"/>
	<path class="st2" d="M592.5,106.2c-8.4,0-12.3,5.6-12.3,10.7c0,6.9,4.7,12.2,11,12.2c5.5,0,13.6-3.6,13.6-11.5
		C604.8,111.3,599.3,106.2,592.5,106.2z"/>
	<path class="st2" d="M85.2,142c3.7,0,7.2-2.2,9.5-6c0.7-1.2,2.4-4.3,2.4-7.9c0-7-6.4-11.7-12.3-11.7c-6.4,0-11.6,5.3-11.6,11.7
		C73.2,133.8,77.9,142,85.2,142z"/>
	<path class="st2" d="M446.3,116.4c-6.4,0-11.6,5.3-11.6,11.7c0,5.6,4.7,13.9,12,13.9c3.7,0,7.2-2.2,9.5-6c0.7-1.2,2.4-4.3,2.4-7.9
		C458.7,121.2,452.3,116.4,446.3,116.4z"/>
	<path class="st2" d="M266.7,131.5c0,6.9,4.7,12.2,11,12.2c5.5,0,13.6-3.6,13.6-11.4c0-5.4-4.1-10.8-11.9-10.8h-0.2
		c-2.3,0-6.5,0-9.6,3.2C267.7,126.4,266.7,128.9,266.7,131.5z"/>
	<path class="st2" d="M628.2,131.5c0,6.9,4.7,12.2,11,12.2c5.5,0,13.6-3.6,13.6-11.4c0-5.4-4.1-10.8-11.9-10.8h-0.2
		c-2.3,0-6.5,0-9.6,3.2C629.2,126.4,628.2,128.9,628.2,131.5z"/>
	<path class="st2" d="M130.7,124.3c-6.4,0-13.1,4.2-13.1,11.2s4.8,12.5,11,12.5c5,0,14.9-3.6,14.9-11.9
		C143.5,129.1,136.8,124.3,130.7,124.3z"/>
	<path class="st2" d="M490.2,148c5,0,14.9-3.6,14.9-11.9c0-7-6.8-11.9-12.8-11.9c-6.4,0-13.1,4.2-13.1,11.2
		C479.2,142.5,484.1,148,490.2,148z"/>
	<path class="st2" d="M42.9,139.5c0-12.3-7.7-13.3-10.1-13.3c-0.2,0-0.5,0-0.7-0.1c-2.2-0.2-6.1-0.6-9.4,2.4c-1.9,1.8-3,4.3-3,7
		c0,7,3.9,14.4,11,14.4C40.3,149.9,42.9,143.4,42.9,139.5z"/>
	<path class="st2" d="M340.8,148c7.9,0,12.1-5.4,12.1-10.8c0-1.3,0-3.2-0.5-5.1c-1.2-4.7-5-7.8-9.5-7.8c-6.5,0-12.2,5.5-12.2,11.9
		C330.6,147.6,339.8,148,340.8,148z"/>
	<path class="st2" d="M692.2,136.1c0,11.5,9.1,11.9,10.2,11.9c2.5,0,4.5-0.5,6.3-1.4v-21.4c-1.3-0.6-2.7-1-4.2-1
		C697.9,124.3,692.2,129.8,692.2,136.1z"/>
	<path class="st2" d="M207.3,143.7c0-6.5-4.3-10.9-10.8-10.9h-0.2c-1.3,0-3.1,0-5,0.5c-4.5,1.3-7.5,5-7.5,9.6
		c0,6.3,4.3,13.2,11.2,13.2C201.6,156.1,207.3,150.2,207.3,143.7z"/>
	<path class="st2" d="M558.1,132.8L558.1,132.8c-1.4,0-3.2,0-5.1,0.5c-4.5,1.3-7.4,5-7.4,9.6c0,6.3,4.3,13.2,11.2,13.2
		c6.3,0,12.1-5.9,12.1-12.4C568.9,137.2,564.6,132.8,558.1,132.8z"/>
	<path class="st2" d="M381.6,163c9.6,0,12.2-6.6,12.2-10.4c0-12.3-7.7-13.3-10.1-13.3c-0.2,0-0.5,0-0.7-0.1
		c-2.1-0.2-6.1-0.6-9.4,2.4c-1.9,1.8-3,4.3-3,7C370.5,155.6,374.4,163,381.6,163z"/>
	<path class="st2" d="M152.1,168.9c0,2.5,0.8,4.9,2.5,6.9c0.4,0.5,0.9,1,1.4,1.5c6.2,5.9,12.3,4.7,15.5,1.8c1.9-1.7,3.4-4.1,4.1-6.7
		c1.1-3.9,0.4-7.8-2-10.6c-1.5-1.7-3.5-3.2-5.6-4.1c-4.1-1.7-8.3-1.2-11.3,1.5c-0.4,0.4-0.8,0.7-1.2,1.1
		C153.3,162.8,152.1,165.9,152.1,168.9z"/>
	<path class="st2" d="M517.1,160.3c-2.3,2.5-3.4,5.6-3.4,8.6c0,2.5,0.8,4.9,2.5,6.9c0.4,0.5,0.9,1,1.4,1.5
		c6.2,5.9,12.3,4.7,15.5,1.8c4.6-4.1,6.6-12,2.1-17.2c-4.2-4.9-11.7-7.3-17-2.6C517.9,159.5,517.5,159.9,517.1,160.3z"/>
	<path class="st2" d="M81.9,171.7c0-7-6.4-11.7-12.3-11.7c-6.3,0-10.9,4.8-10.9,11.3c0,7.8,5.3,11.3,10.5,11.3
		C76.5,182.6,81.9,178,81.9,171.7z"/>
	<path class="st2" d="M420.2,171.3c0,7.8,5.3,11.3,10.5,11.3c7.4,0,12.8-4.6,12.8-10.9c0-7-6.4-11.7-12.3-11.7
		C424.8,159.9,420.2,164.7,420.2,171.3z"/>
	<path class="st2" d="M283.1,175.8c0,7,4.8,12.5,11,12.5c8,0,13.5-4.4,13.5-10.8c0-6.2-4.6-12.9-11.5-12.9
		C289.8,164.5,283.1,168.7,283.1,175.8z"/>
	<path class="st2" d="M644.7,175.8c0,7,4.8,12.5,11,12.5c8,0,13.5-4.4,13.5-10.8c0-6.2-4.6-12.9-11.5-12.9
		C651.3,164.5,644.7,168.7,644.7,175.8z"/>
	<path class="st2" d="M118,181c0-6.2-4.6-12.9-11.5-12.9c-6.4,0-13.1,4.2-13.1,11.2s4.8,12.5,11,12.5C112.5,191.8,118,187.4,118,181
		z"/>
	<path class="st2" d="M479.6,181c0-6.2-4.6-12.9-11.5-12.9c-6.4,0-13.1,4.2-13.1,11.2s4.8,12.5,11,12.5
		C474,191.8,479.6,187.4,479.6,181z"/>
	<path class="st2" d="M229.9,181.8c0,6.9,4.7,12.2,11,12.2c0.2,0,0.4,0,0.6,0c2.2,0.1,6.2,0.1,9.3-3c1.8-1.8,2.8-4.3,2.8-6.9
		c0-7-4.8-12.4-11-12.4h-0.2c-1.3,0-3.1,0-5,0.5C232.9,173.5,229.9,177.3,229.9,181.8z"/>
	<path class="st2" d="M604.1,171.7h-0.2c-1.3,0-3.1,0-5,0.5c-4.5,1.3-7.5,5-7.5,9.6c0,6.9,4.7,12.2,11,12.2c0.2,0,0.4,0,0.6,0
		c2.2,0.1,6.2,0.1,9.3-3c1.8-1.8,2.8-4.3,2.8-6.9C615.2,177.2,610.3,171.7,604.1,171.7z"/>
	<path class="st2" d="M347,174.6c-0.2,0-0.5,0-0.7-0.1c-2.2-0.2-6.1-0.6-9.4,2.4c-1.9,1.8-3,4.3-3,7c0,7,3.9,14.4,11,14.4
		c8,0,13.5-4.4,13.5-10.8C358.4,181.2,353.8,174.6,347,174.6z"/>
	<path class="st2" d="M707.9,174.5c-2.2-0.2-6.1-0.6-9.4,2.4c-1.9,1.8-3,4.3-3,7c0,7,3.9,14.4,11,14.4c0.7,0,1.5-0.1,2.2-0.1v-23.6
		h-0.1C708.4,174.6,708.1,174.5,707.9,174.5z"/>
	<path class="st2" d="M194.1,204.1c0,3.6,2,8.1,7.7,9.8c2.1,0.6,4.2,0.7,5.6,0.7c6,0,13.4-5.9,13.4-12.7c0-5.4-4.1-10.8-11.9-10.8
		c-3.5,0-6.8,1.9-8.5,3C195.2,197.5,194.1,201.4,194.1,204.1z"/>
	<path class="st2" d="M562,194.1c-5.2,3.5-6.3,7.4-6.3,10c0,3.6,2,8.1,7.7,9.8c2.1,0.6,4.2,0.7,5.6,0.7c6,0,13.4-5.9,13.4-12.7
		c0-5.4-4.1-10.8-11.9-10.8C567,191.1,563.6,193,562,194.1z"/>
	<path class="st2" d="M45.9,207c0-5.2-4.7-14.7-12.4-14.7c-3.9,0-10.4,2.7-10.4,12.8c0,7,4.8,12.5,11,12.5
		C42.2,217.6,45.9,212.1,45.9,207z"/>
	<path class="st2" d="M395.1,192.4c-3.9,0-10.4,2.7-10.4,12.8c0,7,4.8,12.5,11,12.5c8.1,0,11.8-5.5,11.8-10.6
		C407.5,201.9,402.8,192.4,395.1,192.4z"/>
	<path class="st2" d="M120.6,216.3c0,3.5,1.8,6.8,5.1,9.5c1.6,1.3,4.7,3.4,8.5,3.4c7.9,0,13.5-4.4,13.5-10.8
		c0-5.5-4.9-13.7-12.3-13.7C130.2,204.6,120.6,208.1,120.6,216.3z"/>
	<path class="st2" d="M509.2,218.3c0-5.5-4.9-13.7-12.3-13.7c-5.2,0-14.8,3.4-14.8,11.7c0,3.5,1.8,6.8,5.1,9.5
		c1.6,1.3,4.7,3.4,8.5,3.4C503.7,229.2,509.2,224.7,509.2,218.3z"/>
	<path class="st2" d="M78.3,236c8.4,0,12.2-5.5,12.2-10.7v-0.4c0-2.2,0.1-6.3-3-9.4c-1.8-1.8-4.2-2.9-6.8-2.9h-0.2
		c-1.3,0-3.1,0-5,0.5c-4.5,1.2-7.4,5-7.4,9.6C68.1,235.4,76.6,236,78.3,236z"/>
	<path class="st2" d="M439.8,236c8.4,0,12.2-5.5,12.2-10.7v-0.4c0-2.2,0.1-6.3-3-9.4c-1.8-1.8-4.2-2.9-6.8-2.9H442
		c-1.3,0-3.1,0-5,0.5c-4.5,1.2-7.4,5-7.4,9.6C429.6,235.4,438.1,236,439.8,236z"/>
	<path class="st2" d="M306,226c0,7,4.8,12.5,11,12.5c6.5,0,12.2-5.5,12.2-11.9c0-11.5-9.2-11.9-10.2-11.9
		C312.7,214.8,306,218.9,306,226z"/>
	<path class="st2" d="M667.6,226c0,7,4.8,12.5,11,12.5c6.5,0,12.2-5.5,12.2-11.9c0-11.5-9.1-11.9-10.2-11.9
		C674.2,214.8,667.6,218.9,667.6,226z"/>
	<path class="st2" d="M541.9,248.3c4.2,3.6,12.7,6,17.7,0c3.4-4.1,3.7-11-2.3-16.1l-0.1-0.1c-1-0.8-2.4-2-4.2-2.8
		c-4.3-2-8.9-1-11.8,2.5c-1,1.3-1.8,2.6-2.3,4s-0.8,2.8-0.8,4.2C538,243.2,539.3,246.1,541.9,248.3z"/>
	<path class="st2" d="M179.6,231.8c-1,1.3-1.8,2.6-2.3,4s-0.8,2.8-0.8,4.2c0,3.1,1.3,6.1,3.8,8.3c1.7,1.5,4.1,2.6,6.4,3.2
		c4.5,1.1,8.6-0.1,11.2-3.2c3.4-4.1,3.7-11-2.3-16.1l-0.1-0.1c-1-0.9-2.4-2-4.2-2.8C187.1,227.3,182.5,228.3,179.6,231.8z"/>
	<path class="st2" d="M241.5,232.3c-2.1,1.7-3.4,4.4-3.4,7.3c0,5.8,4,13.8,11.5,13.8c4.1,0,7.3-2.6,8.8-4.1c1.6-1.5,4.2-4.8,4.2-9
		c0-2.8-1.1-5.2-3-7c-3.1-2.9-6.9-2.6-8.7-2.5c-0.1,0-0.2,0-0.3,0s-0.2,0-0.3-0.1C248.9,230.4,245,229.5,241.5,232.3z"/>
	<path class="st2" d="M612.6,230.8c-0.1,0-0.2,0-0.4,0c-0.1,0-0.2,0-0.3-0.1c-1.5-0.4-5.4-1.3-8.9,1.5c-2.1,1.7-3.4,4.4-3.4,7.3
		c0,5.8,4,13.8,11.5,13.8c4.1,0,7.3-2.6,8.8-4.1c1.6-1.5,4.2-4.8,4.2-9c0-2.8-1.1-5.2-3-7C618.2,230.3,614.4,230.6,612.6,230.8z"/>
	<path class="st2" d="M24.6,248.9c0.6-2.1,0.7-4.3,0.7-5.8c0-5.4-4.1-10.8-11.9-10.8h-0.2c-2.3,0-6.5,0-9.6,3.2
		c-1.8,1.8-2.8,4.3-2.8,6.9c0,3.1,1.5,6.4,4.5,9.6c3.1,3.4,6.4,5.1,9.7,5.1C18.5,257.1,23,255,24.6,248.9z"/>
	<path class="st2" d="M386.9,243.1c0-5.4-4.1-10.8-11.9-10.8h-0.2c-2.3,0-6.5,0-9.6,3.2c-1.8,1.8-2.8,4.3-2.8,6.9
		c0,3.1,1.5,6.4,4.5,9.6c3.1,3.4,6.4,5.1,9.7,5.1c3.6,0,8-2.2,9.7-8.2C386.8,246.7,386.9,244.3,386.9,243.1z"/>
	<path class="st2" d="M107.3,253.7c0,7,4.8,12.5,11,12.5s11.2-5.4,11.2-12.1c0-8-5.4-12.1-10.7-12.1
		C112.5,242,107.3,247.3,107.3,253.7z"/>
	<path class="st2" d="M480.5,242c-6.4,0-11.6,5.3-11.6,11.7c0,7,4.8,12.5,11,12.5s11.2-5.4,11.2-12.1
		C491.2,246.2,485.8,242,480.5,242z"/>
	<path class="st2" d="M71.3,262.2c0-4-2.1-6.3-3.3-7.3c-3.4-2.8-7.1-2-8.6-1.7c-0.1,0-0.2,0-0.3,0.1c-1.3,0-3.1,0-4.9,0.5
		c-4.5,1.3-7.4,5-7.4,9.6c0,12.3,7.7,13.3,10.1,13.3c3.1,0,6.4-1.6,9.5-4.7C69.6,268.7,71.3,265.5,71.3,262.2z"/>
	<path class="st2" d="M429.5,254.9c-3.4-2.8-7.1-2-8.6-1.7c-0.1,0-0.2,0-0.3,0.1c-1.3,0-3.1,0-4.9,0.5c-4.5,1.3-7.4,5-7.4,9.6
		c0,12.3,7.7,13.3,10.1,13.3c3.1,0,6.3-1.6,9.5-4.7c3.3-3.2,4.9-6.5,4.9-9.8C432.8,258.2,430.8,255.9,429.5,254.9z"/>
	<path class="st2" d="M287.5,261.8h-0.2c-1.3,0-3.1,0-5,0.5c-4.5,1.3-7.5,5-7.5,9.6c0,6.9,4.7,12.2,11,12.2
		c5.5,0,13.6-3.6,13.6-11.4C299.4,267.3,295.3,261.8,287.5,261.8z"/>
	<path class="st2" d="M636.4,271.9c0,6.9,4.7,12.2,11,12.2c5.5,0,13.6-3.6,13.6-11.4c0-5.4-4.1-10.8-11.9-10.8h-0.2
		c-1.3,0-3.1,0-5,0.5C639.4,263.6,636.4,267.4,636.4,271.9z"/>
	<path class="st2" d="M148,275.9c0,7,4.8,12.5,11,12.5c1.5,0,3.1-0.2,4.5-0.5c6.6-1.6,9-6.4,9-10.3c0-4.9-3.1-11-8.8-12.5h-0.1
		c-0.9-0.2-1.7-0.3-2.6-0.3C154.6,264.7,148,268.9,148,275.9z"/>
	<path class="st2" d="M534.1,277.6c0-4.9-3.1-11-8.8-12.5h-0.1c-0.9-0.2-1.7-0.3-2.6-0.3c-6.4,0-13.1,4.2-13.1,11.2
		s4.8,12.5,11,12.5c1.5,0,3.1-0.2,4.5-0.5C531.7,286.2,534.1,281.5,534.1,277.6z"/>
	<path class="st2" d="M342.4,291.8c6.8,0,12-6.7,12-12.7c0-3.8-2.1-7.3-5.7-9.5c-2.3-1.4-5-2.2-7.4-2.2c-6.6,0-11.4,4.6-11.4,11
		C329.8,284.4,335.6,291.8,342.4,291.8z"/>
	<path class="st2" d="M691.4,278.4c0,6,5.8,13.4,12.6,13.4c1.7,0,3.3-0.4,4.7-1.1v-21.9c-1.9-0.9-4-1.4-5.9-1.4
		C696.1,267.4,691.4,272,691.4,278.4z"/>
	<path class="st2" d="M221.4,299.9c6.6,0,11.6-4.8,11.6-11.1v-0.3c0-1.7,0-5.2-2.8-8c-1.3-1.3-3.5-2.8-7.2-2.8h-0.2
		c-1.3,0-3.1,0-5,0.5c-4.5,1.3-7.5,5-7.5,9.6C210.5,294.6,215.2,299.9,221.4,299.9z"/>
	<path class="st2" d="M584.6,277.6h-0.2c-1.3,0-3.1,0-5,0.5c-4.5,1.3-7.5,5-7.5,9.6c0,6.9,4.7,12.2,11,12.2
		c6.6,0,11.6-4.8,11.6-11.1v-0.3c0-1.7,0-5.2-2.8-8C590.5,279.1,588.3,277.6,584.6,277.6z"/>
	<path class="st2" d="M90.5,301.2c8.7,0,14.5-4.4,14.5-10.8c0-6.3-5.5-11.4-12.2-11.4c-0.2,0-0.5,0-0.7-0.1c-2.1-0.2-6-0.6-9.3,2.4
		c-1.9,1.8-3,4.3-3,7C79.8,295.7,84.3,301.2,90.5,301.2z"/>
	<path class="st2" d="M466.6,290.3c0-6.3-5.5-11.4-12.2-11.4c-0.2,0-0.5,0-0.7-0.1c-2.1-0.2-6-0.6-9.3,2.4c-1.9,1.8-3,4.3-3,7
		c0,7.5,4.5,12.9,10.7,12.9C460.7,301.2,466.6,296.8,466.6,290.3z"/>
	<path class="st2" d="M47.3,301c0-6.5-5.8-12.4-12.3-12.4c-5.9,0-12.3,4.7-12.3,11.7c0,6.9,4.7,12.2,11,12.2
		C39.2,312.5,47.3,308.8,47.3,301z"/>
	<path class="st2" d="M384.4,300.3c0,6.9,4.7,12.2,11,12.2c5.5,0,13.6-3.6,13.6-11.4c0-6.5-5.8-12.4-12.3-12.4
		C390.7,288.7,384.4,293.4,384.4,300.3z"/>
	<path class="st2" d="M242.3,307.9c0,6.9,4.7,12.2,11,12.2c0.2,0,0.5,0,0.8,0c2.5,0.1,6.7,0.4,9.9-2.7c1.9-1.8,2.9-4.2,2.9-6.8
		c0-6-5.1-12.7-11.9-12.7h-0.2c-1.3,0-3.1,0-5,0.5C245.2,299.5,242.3,303.3,242.3,307.9z"/>
	<path class="st2" d="M603.8,307.9c0,6.9,4.7,12.2,11,12.2c0.2,0,0.5,0,0.8,0c2.5,0.1,6.7,0.4,9.9-2.7c1.9-1.8,2.9-4.2,2.9-6.8
		c0-6-5.1-12.7-11.9-12.7h-0.2c-1.3,0-3.1,0-5,0.5C606.7,299.5,603.8,303.3,603.8,307.9z"/>
	<path class="st2" d="M298.2,330c6.6,0,11.5-4.8,11.5-11.1v-0.4c0-1.7,0-5.1-2.7-8c-1.3-1.3-3.5-2.8-7.2-2.8h-0.2
		c-2.3,0-6.5,0-9.6,3.2c-1.8,1.8-2.8,4.3-2.8,6.9C287.2,324.8,291.9,330,298.2,330z"/>
	<path class="st2" d="M648.8,317.9c0,6.9,4.7,12.2,11,12.2c6.6,0,11.5-4.8,11.5-11.1v-0.4c0-1.7,0-5.1-2.7-8
		c-1.3-1.3-3.5-2.8-7.2-2.8h-0.2c-2.3,0-6.5,0-9.6,3.2C649.8,312.8,648.8,315.3,648.8,317.9z"/>
	<path class="st2" d="M121.7,327.1c0,0.2,0,0.4-0.1,0.6c-0.1,0.6-0.1,1.3-0.1,2.2c0,1.9,0.4,4.4,2.4,6.6c1.8,2,4.2,3.1,7,3.1
		c5,0,14.8-4.4,14.8-12.5c0-7-6.4-11.7-12.3-11.7C126.9,315.4,121.7,320.7,121.7,327.1z"/>
	<path class="st2" d="M507.2,327.1c0-7-6.4-11.7-12.3-11.7c-6.4,0-11.6,5.2-11.6,11.7c0,0.2,0,0.4-0.1,0.6c-0.1,0.6-0.1,1.3-0.1,2.2
		c0,1.9,0.4,4.4,2.4,6.6c1.8,2,4.2,3.1,7,3.1C497.5,339.6,507.2,335.2,507.2,327.1z"/>
	<path class="st2" d="M21.2,331c0-2.4-0.9-6.8-7.1-10.1c-1.3-0.7-4.6-2.3-7.9-2.3c-2.9,0-4.9,1.1-6.1,2.1v18.4
		c1.9,2,4.6,3.3,7.6,3.3C13.1,342.5,21.2,338.8,21.2,331z"/>
	<path class="st2" d="M382.8,331c0-2.4-0.9-6.8-7.1-10.1c-1.3-0.7-4.6-2.3-7.9-2.3c-3.8,0-6,1.9-7.1,3c-2.2,2.3-2.5,5-2.5,6.8
		c0,0.5,0,1,0.1,1.3c0,0.2,0,0.4,0,0.6c0,6.9,4.7,12.2,11,12.2C374.7,342.5,382.8,338.8,382.8,331z"/>
	<path class="st2" d="M188.1,336.1v0.8c0,2.4,0.2,6.4,3.1,9.4c1.8,1.8,4.2,2.8,6.8,2.8c5.1,0,14.6-4.2,14.6-12.3c0-2.7-1-5.2-2.8-7
		c-3.1-3-6.9-3-8.9-2.9h-0.4c-0.2,0-0.4,0-0.6-0.1c-1.6-0.2-5.5-0.7-8.7,2.2C189.2,330.7,188.1,333.3,188.1,336.1z"/>
	<path class="st2" d="M562.4,326.9H562c-0.2,0-0.4,0-0.6-0.1c-1.6-0.2-5.5-0.7-8.7,2.2c-2,1.8-3.1,4.3-3.1,7.1v0.8
		c0,2.4,0.2,6.4,3.1,9.4c1.8,1.8,4.2,2.8,6.8,2.8c5.1,0,14.6-4.2,14.6-12.3c0-2.7-1-5.2-2.8-7C568.3,326.8,564.5,326.8,562.4,326.9z
		"/>
	<path class="st2" d="M83,349.1c1.8,1.9,4.2,3,6.8,3c6.2,0,12.9-4.7,12.9-11.6c0-0.2,0-0.4,0-0.6c0.1-1.7,0.2-5.2-2.6-8.2
		c-1.3-1.3-3.5-2.9-7-2.9h-0.2c-2.3,0-6.5,0-9.6,3.2c-1.8,1.8-2.8,4.3-2.8,6.9c0,0.2,0,0.5,0,0.7c0,0.5-0.1,1.2-0.1,1.9
		C80.4,343.8,80.7,346.6,83,349.1z"/>
	<path class="st2" d="M464.3,340.4c0-0.2,0-0.4,0-0.6c0.1-1.7,0.2-5.2-2.6-8.2c-1.3-1.3-3.5-2.9-7-2.9h-0.2c-2.3,0-6.5,0-9.6,3.2
		c-1.8,1.8-2.8,4.3-2.8,6.9c0,0.2,0,0.5,0,0.7c0,0.5-0.1,1.2-0.1,1.9c0,2.2,0.4,5.1,2.6,7.5c1.8,1.9,4.2,3,6.8,3
		C457.6,352,464.3,347.4,464.3,340.4z"/>
	<path class="st2" d="M67.2,352.7c0-6.2-4.6-12.9-11.5-12.9c-6.4,0-13.1,4.2-13.1,11.2s4.8,12.5,11,12.5
		C61.6,363.6,67.2,359.1,67.2,352.7z"/>
	<path class="st2" d="M404.2,351c0,7,4.8,12.5,11,12.5c7.9,0,13.5-4.5,13.5-10.8c0-6.2-4.6-12.9-11.5-12.9
		C410.9,339.8,404.2,344,404.2,351z"/>
	<path class="st2" d="M321.4,358.7c0,7,4.8,12.5,11,12.5c3.4,0,6.8-1.9,9.4-5.3c1.3-1.6,3.4-4.9,3.4-8.8c0-1.7-0.6-10.2-12.3-10.2
		C326.6,347,321.4,352.3,321.4,358.7z"/>
	<path class="st2" d="M682.9,358.7c0,7,4.8,12.5,11,12.5c3.4,0,6.8-1.9,9.4-5.3c1.3-1.6,3.4-4.9,3.4-8.8c0-1.7-0.6-10.2-12.3-10.2
		C688.1,347,682.9,352.3,682.9,358.7z"/>
	<path class="st2" d="M232.1,354.4c-1,1.7-1.5,3.6-1.5,5.5c0,2.1,0.7,4.2,2,6c2.7,3.7,11.9,10.4,18.8,5.3c2.1-1.5,3.4-3.8,3.7-6.3
		c0.6-4.5-2-8-3.5-10c-0.1-0.2-0.2-0.3-0.4-0.5c-0.1-0.2-0.2-0.4-0.4-0.5c-1-1.6-3.2-4.8-7.4-5.5c-2.5-0.4-5.1,0.2-7.3,1.8
		C234.4,351.4,233,352.8,232.1,354.4z"/>
	<path class="st2" d="M616.6,364.8c0.6-4.5-1.9-8-3.5-10c-0.1-0.2-0.2-0.3-0.4-0.5c-0.1-0.2-0.2-0.4-0.4-0.5c-1-1.6-3.2-4.8-7.4-5.5
		c-2.5-0.4-5.1,0.2-7.3,1.8c-1.8,1.4-3.2,2.8-4.1,4.4c-1,1.7-1.5,3.6-1.5,5.5c0,2.1,0.7,4.2,2,6c2.7,3.7,11.9,10.4,18.8,5.3
		C614.9,369.6,616.2,367.4,616.6,364.8z"/>
	<path class="st2" d="M168.1,374.9c1.4-1.8,2.1-3.9,2.1-6.1c0-2.3-0.7-4.4-2-6.2c-2.2-3-5.7-4.6-9.9-4.6h-0.2c-2.3,0-6.5,0-9.6,3.2
		c-1.8,1.8-2.8,4.3-2.8,6.9c0,6.9,4.7,12.2,11,12.2C159.4,380.2,164.9,379.1,168.1,374.9z"/>
	<path class="st2" d="M529.6,374.9c1.4-1.8,2.1-3.9,2.1-6.1c0-2.3-0.7-4.4-2-6.2c-2.2-3-5.7-4.6-9.9-4.6h-0.2c-2.3,0-6.5,0-9.6,3.2
		c-1.8,1.8-2.8,4.3-2.8,6.9c0,6.9,4.7,12.2,11,12.2C520.9,380.2,526.4,379.1,529.6,374.9z"/>
	<path class="st2" d="M299.1,371.6c0-7-6.4-11.7-12.3-11.7c-6.4,0-11.6,5.3-11.6,11.7c0,7,4.8,12.5,11,12.5
		C292.2,384.1,299.1,378.6,299.1,371.6z"/>
	<path class="st2" d="M648.3,359.8c-6.4,0-11.6,5.3-11.6,11.7c0,7,4.8,12.5,11,12.5c5.9,0,12.9-5.5,12.9-12.5
		C660.7,364.6,654.3,359.8,648.3,359.8z"/>
	<path class="st2" d="M113.6,392.5c0-7-6.4-11.7-12.3-11.7c-6.4,0-11.6,5.3-11.6,11.7c0,7,4.8,12.5,11,12.5
		C106.6,405,113.6,399.4,113.6,392.5z"/>
	<path class="st2" d="M451.2,392.5c0,7,4.8,12.5,11,12.5c6,0,12.9-5.5,12.9-12.5s-6.4-11.7-12.3-11.7
		C456.4,380.8,451.2,386.1,451.2,392.5z"/>
	<path class="st2" d="M34.1,399.3c1.2-1.7,3.3-5,3.3-8.7c0-2.7-1-5.2-2.8-7c-3.1-3-6.9-2.9-8.9-2.9c-0.2,0-0.4,0-0.6,0
		c-6.4,0-11.6,5.3-11.6,11.7c0,7,4.8,12.5,11,12.5C28,405,31.3,403,34.1,399.3z"/>
	<path class="st2" d="M375,392.5c0,7,4.8,12.5,11,12.5c3.6,0,6.9-2,9.6-5.7c1.2-1.7,3.3-5,3.3-8.7c0-2.7-1-5.2-2.8-7
		c-3.1-3-6.9-2.9-8.9-2.9c-0.2,0-0.4,0-0.6,0C380.2,380.8,375,386.1,375,392.5z"/>
	<path class="st2" d="M204.7,401.8c0-5.4-4.1-10.8-11.9-10.8h-0.2c-1.3,0-3.1,0-5,0.5c-4.5,1.3-7.5,5-7.5,9.6
		c0,6.9,4.7,12.2,11,12.2C196.6,413.2,204.7,409.6,204.7,401.8z"/>
	<path class="st2" d="M541.7,401.1c0,6.9,4.7,12.2,11,12.2c5.5,0,13.6-3.6,13.6-11.4c0-5.4-4.1-10.8-11.9-10.8h-0.2
		c-1.3,0-3.1,0-5,0.5C544.7,392.7,541.7,396.5,541.7,401.1z"/>
	<path class="st2" d="M347.5,405c0-0.2,0-0.4,0-0.7c0-1.9,0.1-5.8-2.8-8.9c-1.8-1.9-4.2-2.9-6.9-2.9h-0.2c-1.3,0-3.1,0-5,0.5
		c-4.5,1.3-7.4,5-7.4,9.6c0,5,4.3,14.7,12.3,14.7c4.4,0,8.1-2.8,9.4-7.2C347.5,408.3,347.5,406.4,347.5,405z"/>
	<path class="st2" d="M699,417.4c-7.9,0-12.3-9.7-12.3-14.7c0-4.6,2.9-8.3,7.5-9.6c1.9-0.5,3.7-0.5,5-0.5h0.2c2.7,0,5.1,1,6.9,2.9
		c1.3,1.4,2.1,3,2.4,4.4v9.4c-0.1,0.3-0.1,0.6-0.2,0.9C707.1,414.5,703.4,417.4,699,417.4z"/>
	<path class="st2" d="M247.1,402.8c-3.4-2.8-7.2-2-8.6-1.7c-0.1,0-0.2,0-0.3,0.1c-0.1,0-0.3,0-0.4,0c-2.6-0.1-7.1-0.1-10.3,3.1
		c-1.8,1.8-2.8,4.2-2.8,6.7c0,6.5,5.8,12.5,12.1,12.5c4,0,7.3-2.5,8.9-4c2.1-2,4.7-5.2,4.7-9.4C250.4,406.1,248.3,403.8,247.1,402.8
		z"/>
	<path class="st2" d="M599.8,401.2c-0.1,0-0.3,0-0.4,0c-2.6-0.1-7.1-0.1-10.3,3.1c-1.8,1.8-2.8,4.2-2.8,6.7
		c0,6.5,5.8,12.5,12.1,12.5c4,0,7.3-2.5,8.9-4c2.1-2,4.7-5.2,4.7-9.4c0-4-2.1-6.3-3.3-7.3c-3.4-2.8-7.2-2-8.6-1.7
		C600,401.1,599.9,401.1,599.8,401.2z"/>
	<path class="st2" d="M137.1,413.1c-6.4,0-11.6,5.3-11.6,11.7c0,0.1,0,0.3,0,0.4h23.9c0-0.1,0-0.3,0-0.4
		C149.5,417.8,143.1,413.1,137.1,413.1z"/>
	<path class="st2" d="M498.7,413.1c-6.4,0-11.6,5.3-11.6,11.7c0,0.1,0,0.3,0,0.4H511c0-0.1,0-0.3,0-0.4
		C511,417.8,504.6,413.1,498.7,413.1z"/>
	<path class="st2" d="M291.6,414c-4.8,0-14.1,3.4-14.7,11.2h26.6c0-0.1,0-0.2,0-0.3C303.5,419.5,299.4,414,291.6,414z"/>
	<path class="st2" d="M653.2,414c-4.8,0-14.1,3.4-14.7,11.2h26.6c0-0.1,0-0.2,0-0.3C665.1,419.5,661,414,653.2,414z"/>
	<path class="st2" d="M59.1,416.9h-0.4c-3.6,0-7,2-9.3,5.5c-0.6,0.9-1.1,1.8-1.5,2.8h22.3c-0.3-2.1-1.2-4-2.7-5.4
		C64.5,416.8,60.8,416.9,59.1,416.9z"/>
	<path class="st2" d="M420.6,416.9h-0.4c-3.6,0-7,2-9.3,5.5c-0.6,0.9-1.1,1.8-1.5,2.8h22.3c-0.3-2.1-1.2-4-2.7-5.4
		C426.1,416.8,422.4,416.9,420.6,416.9z"/>
</g>
</svg>
