<?xml version="1.0" encoding="utf-8"?>
<!-- Generator: Adobe Illustrator 22.0.1, SVG Export Plug-In . SVG Version: 6.00 Build 0)  -->
<svg version="1.1" id="Layer_1" xmlns="http://www.w3.org/2000/svg" xmlns:xlink="http://www.w3.org/1999/xlink" x="0px" y="0px"
	 viewBox="0 0 708.6 425.3" style="enable-background:new 0 0 708.6 425.3;" xml:space="preserve">
<style type="text/css">
	.st0{display:none;fill:#5525FF;}
	.st1{opacity:3.000000e-02;}
	.st2{fill:#FFFFFF;}
</style>
<rect class="st0" width="708.7" height="425.2"/>
<g class="st1">
	<rect x="511.9" y="265.2" class="st2" width="109.2" height="5.2"/>
	<polygon class="st2" points="351.1,381.4 245.8,410.3 247.1,415.3 352.5,386.4 	"/>
	<polygon class="st2" points="364,178.5 266.7,128.3 264.4,132.9 361.7,183.1 	"/>
	<polygon class="st2" points="576.3,421.5 601.8,425.2 637.7,425.2 577,416.4 	"/>
	
		<rect x="515.5" y="323.9" transform="matrix(1.818164e-02 -0.9998 0.9998 1.818164e-02 148.9296 871.2033)" class="st2" width="5.2" height="71.8"/>
	
		<rect x="463.3" y="156.3" transform="matrix(1.820578e-02 -0.9998 0.9998 1.820578e-02 265.2236 654.4731)" class="st2" width="5.2" height="71.8"/>
	<polygon class="st2" points="561.7,327.7 591.5,393.9 596.1,391.8 566.3,325.5 	"/>
	<polygon class="st2" points="171.4,0.7 171.4,0 166.3,0 166.3,0.3 	"/>
	<polygon class="st2" points="129.4,85.9 136.7,86.3 137,81.1 129.4,80.7 	"/>
	<polygon class="st2" points="129.4,108.6 172.6,103.4 172,98.3 129.4,103.4 	"/>
	<polygon class="st2" points="137,193.2 136.2,188 129.4,189.2 129.4,194.4 	"/>
	<polygon class="st2" points="268.9,425.2 274.3,425.2 270.3,422.8 	"/>
	<polygon class="st2" points="246.3,383.1 236.7,399.9 241.1,402.5 250.7,385.7 	"/>
	<polygon class="st2" points="177,251.4 174,247.2 129.4,279.8 129.4,286.2 	"/>
	<polygon class="st2" points="139.9,24.4 129.4,23.5 129.4,28.7 139.6,29.5 	"/>
	<polygon class="st2" points="130.1,59.5 133.8,56 129.4,51.3 129.4,58.8 	"/>
	<polygon class="st2" points="184.6,126.2 180.9,129.7 196.1,146.1 199.8,142.5 	"/>
	<polygon class="st2" points="172.7,150.2 176.4,146.7 161.2,130.3 157.5,133.8 	"/>
	<polygon class="st2" points="129.4,403.9 129.4,409.5 138,413.2 140,408.4 	"/>
	<polygon class="st2" points="216.5,295.3 215.2,290.3 129.4,313.6 129.4,318.9 	"/>
	<polygon class="st2" points="129.4,343.4 150.8,346.9 151.6,341.8 129.4,338.2 	"/>
	<polygon class="st2" points="129.4,362 129.4,367.2 152,370.5 152.8,365.4 	"/>
	<polygon class="st2" points="137.8,205.8 132.9,204.2 129.4,215.4 129.4,215.4 129.4,232.3 	"/>
	<polygon class="st2" points="139.2,385.4 138,380.4 129.4,382.5 129.4,387.8 	"/>
	<polygon class="st2" points="178.5,35.1 181,30.6 129.4,0.6 129.4,6.6 	"/>
	<polygon class="st2" points="154,202.1 129.4,146.3 129.4,159 149.4,204.2 	"/>
	<polygon class="st2" points="708.7,425.2 708.7,422 704.4,425.2 	"/>
	<polygon class="st2" points="651.9,416.5 696.6,379.1 693.4,375.1 648.6,412.5 	"/>
	<polygon class="st2" points="430.9,7.3 378.1,13.6 378.7,18.7 431.5,12.4 	"/>
	<polygon class="st2" points="359.5,152.2 412.2,145.9 411.6,140.8 358.9,147.1 	"/>
	<polygon class="st2" points="410,28.1 408.3,32.9 432.9,42.2 434.7,37.3 	"/>
	<polygon class="st2" points="400.8,66.4 405.3,63.9 392.6,40.5 388.1,43 	"/>
	<polygon class="st2" points="336.8,14 332.8,0 327.5,0 331.9,15.4 	"/>
	<polygon class="st2" points="356.4,350.3 404.9,369.7 406.8,364.9 358.3,345.5 	"/>
	<polygon class="st2" points="402.9,182.1 410.5,234.4 415.5,233.7 407.9,181.3 	"/>
	<polygon class="st2" points="475.1,397.6 523.7,417.1 525.5,412.3 477,392.8 	"/>
	<polygon class="st2" points="283.8,424.6 283.9,425.2 289.1,425.2 288.8,423.6 	"/>
	<polygon class="st2" points="419.1,392.8 373.8,425.2 382.7,425.2 422,397.1 	"/>
	<polygon class="st2" points="359.8,30.2 364.5,28.3 353.7,0 353.1,0 348.9,1.7 	"/>
	<polygon class="st2" points="416.5,384.8 396.1,376.1 394.1,380.8 414.5,389.6 	"/>
	<polygon class="st2" points="213.1,251.8 323.5,221.8 322.2,216.8 211.8,246.8 	"/>
	<polygon class="st2" points="369.8,249.4 409.7,255.9 410.5,250.8 370.6,244.3 	"/>
	<polygon class="st2" points="268.9,182.2 269.6,177.1 156.4,160.6 155.7,165.7 	"/>
	<polygon class="st2" points="303.5,349.2 304.2,344.1 191.1,327.7 190.3,332.8 	"/>
	<polygon class="st2" points="513.3,75.1 491.2,144.9 496,146.5 518.1,76.7 	"/>
	<polygon class="st2" points="327.8,311.6 398.1,294.4 396.9,289.4 326.6,306.5 	"/>
	<polygon class="st2" points="307.6,310.7 243.8,276.2 241.4,280.8 305.2,315.3 	"/>
	<polygon class="st2" points="455.2,271.5 471.6,380.3 476.6,379.6 460.3,270.7 	"/>
	<polygon class="st2" points="212.6,149.9 217.3,147.8 172.7,46.7 168,48.8 	"/>
	<polygon class="st2" points="301,411.2 298.8,415.9 317.7,425.2 319,425.2 321,421 	"/>
	<polygon class="st2" points="237.2,379.6 155.7,398.3 156.8,403.4 238.3,384.7 	"/>
	<polygon class="st2" points="705.4,380.2 708.7,382.4 708.7,376.2 708.2,375.9 	"/>
	<polygon class="st2" points="657.6,78.6 670.9,47.7 666.3,45.6 652.9,76.5 	"/>
	<polygon class="st2" points="654.7,0 650.2,0 653.3,2.1 	"/>
	<polygon class="st2" points="584.7,7.9 587.5,3.6 582.3,0 576.5,0 575.5,1.6 	"/>
	<polygon class="st2" points="515.9,118 536.8,132.2 539.7,128 518.8,113.7 	"/>
	<polygon class="st2" points="675,349.1 679.8,347.2 667,314.6 662.3,316.5 	"/>
	<polygon class="st2" points="571.8,279.8 581.6,297.6 586,295.1 576.2,277.3 	"/>
	<polygon class="st2" points="563.8,200.6 543.8,203 544.4,208.1 564.3,205.7 	"/>
	<polygon class="st2" points="529.3,206.4 548.1,249.1 552.7,247 534,204.3 	"/>
	<polygon class="st2" points="471.1,35.2 455.6,0 450.1,0 466.5,37.3 	"/>
	<polygon class="st2" points="523.5,12.6 517.9,0 512.3,0 518.8,14.7 	"/>
	<polygon class="st2" points="499.6,317.4 497.8,322.3 547.7,341.7 549.5,336.8 	"/>
	<polygon class="st2" points="457.4,328.6 407.4,309.1 405.6,314 455.5,333.4 	"/>
	<polygon class="st2" points="475.1,414.5 479.8,425.2 485.4,425.2 479.8,412.4 	"/>
	<polygon class="st2" points="556.7,285.2 520.5,301.6 522.6,306.3 558.8,289.9 	"/>
	<polygon class="st2" points="476.2,203.7 471.3,205.1 482.2,243.7 487.1,242.3 	"/>
	<polygon class="st2" points="518,238.5 481.9,254.9 483.9,259.6 520.1,243.2 	"/>
	<polygon class="st2" points="422.2,226.5 424.3,231.2 460.5,214.8 458.4,210.1 	"/>
	<polygon class="st2" points="454.4,234.3 440.9,272 445.7,273.8 459.2,236 	"/>
	<polygon class="st2" points="559.6,390 552.5,381.4 548.5,384.7 555.7,393.3 	"/>
	<polygon class="st2" points="544.1,308.3 540.1,311.7 547.2,320.3 551.2,317 	"/>
	<polygon class="st2" points="533.4,386.9 504.5,376.7 502.9,381.6 531.7,391.8 	"/>
	<polygon class="st2" points="433,392.8 431.3,397.7 460.1,408 461.8,403.1 	"/>
	<polygon class="st2" points="475.9,282.5 504.7,292.8 506.4,287.9 477.6,277.6 	"/>
	<polygon class="st2" points="668.4,15.1 708.7,17.5 708.7,12.3 668.7,10 	"/>
	<polygon class="st2" points="685.4,52.5 708.7,48.6 708.7,43.3 684.5,47.4 	"/>
	<polygon class="st2" points="612.8,192.2 613.6,197.3 665.1,188.7 664.2,183.6 	"/>
	<polygon class="st2" points="522,185.9 573.5,177.3 572.6,172.2 521.2,180.8 	"/>
	<polygon class="st2" points="633.7,101.5 685.1,92.9 684.3,87.8 632.8,96.4 	"/>
	<polygon class="st2" points="570.5,398.3 533,425.2 541.8,425.2 573.5,402.6 	"/>
	<polygon class="st2" points="699.6,236.2 708.7,229.5 708.7,223.1 696.6,232 	"/>
	<polygon class="st2" points="532.1,112.1 624.2,44.7 621.2,40.5 529.1,107.9 	"/>
	<polygon class="st2" points="470.1,70.9 562.3,3.5 559.8,0 558.4,0 467.2,66.7 	"/>
	<polygon class="st2" points="676.6,33.1 677,27.9 619.2,23.5 618.8,28.7 	"/>
	<polygon class="st2" points="695.6,0 690.5,0 692.9,2.6 	"/>
	<polygon class="st2" points="602.2,26 613.2,0 607.7,0 597.5,23.9 	"/>
	<polygon class="st2" points="631.5,63.8 626.8,61.7 615.3,88.8 620,90.9 	"/>
	<polygon class="st2" points="603,363.6 643,370.1 643.8,365 603.8,358.5 	"/>
	
		<rect x="602.4" y="207.9" transform="matrix(0.9995 -3.146836e-02 3.146836e-02 0.9995 -6.8878 19.1497)" class="st2" width="5.1" height="41"/>
	
		<rect x="550.1" y="28.4" transform="matrix(0.9995 -3.147557e-02 3.147557e-02 0.9995 -1.2653 17.4191)" class="st2" width="5.1" height="41"/>
	
		<rect x="484.6" y="68.5" transform="matrix(0.9995 -3.143181e-02 3.143181e-02 0.9995 -2.5567 15.3558)" class="st2" width="5.1" height="41"/>
	<polygon class="st2" points="481.2,19.7 480.6,0 475.5,0 476.1,19.9 	"/>
	<polygon class="st2" points="652.8,177.3 657.1,174.5 634.8,140.2 630.5,143.1 	"/>
	<polygon class="st2" points="555.7,113.4 551.4,116.2 573.7,150.4 578,147.6 	"/>
	<polygon class="st2" points="483.7,140.9 443.7,134.5 442.9,139.6 482.9,146 	"/>
	<polygon class="st2" points="461.2,100.5 472.3,117.6 476.6,114.7 465.4,97.6 	"/>
	<polygon class="st2" points="390.1,87.4 415.2,119.5 419.2,116.3 394.1,84.2 	"/>
	<polygon class="st2" points="602,290.1 708.7,305.6 708.7,300.3 602.8,285 	"/>
	<polygon class="st2" points="670.9,245.2 708.7,250.7 708.7,245.4 671.7,240.1 	"/>
	<polygon class="st2" points="696.4,131.9 697.2,126.8 584,110.3 583.3,115.5 	"/>
	<polygon class="st2" points="678.9,211.6 701,141.8 696.1,140.2 674,210 	"/>
	<polygon class="st2" points="708.7,325.7 708.7,324.8 708.4,324.8 	"/>
	<polygon class="st2" points="576.3,335 646.6,317.9 645.4,312.9 575.2,330 	"/>
	<polygon class="st2" points="692.9,71.9 708.7,107.6 708.7,94.9 697.6,69.8 	"/>
	<polygon class="st2" points="417.2,53.5 440.4,123.8 445.3,122.2 422.1,51.9 	"/>
	<polygon class="st2" points="454.1,80.5 446.4,21.3 441.3,22 449.1,81.2 	"/>
	<polygon class="st2" points="271.6,61.6 269.3,0 264.2,0 266.5,61.8 	"/>
	<polygon class="st2" points="377,136.1 382.1,135.9 379.3,61.9 374.2,62.1 	"/>
	<polygon class="st2" points="455.8,421.7 453.7,425.2 459.7,425.2 460.1,424.5 	"/>
	<polygon class="st2" points="446.5,293.3 418.1,283.5 416.5,288.4 444.8,298.2 	"/>
	<polygon class="st2" points="693.4,413.4 701.6,400 697.3,397.3 689.1,410.7 	"/>
	<polygon class="st2" points="699,273 699.7,267.9 656.3,262.3 655.7,267.5 	"/>
	<polygon class="st2" points="619.1,384.3 610.9,397.7 615.2,400.4 623.4,387 	"/>
	<polygon class="st2" points="591.9,314.6 600.1,301.2 595.8,298.5 587.5,311.9 	"/>
	<polygon class="st2" points="602,338.5 593.8,351.9 598.1,354.6 606.4,341.2 	"/>
	<polygon class="st2" points="643.5,265 635.3,278.4 639.7,281.1 647.9,267.7 	"/>
	<polygon class="st2" points="486.2,298.2 478,311.6 482.3,314.3 490.5,300.9 	"/>
	<polygon class="st2" points="653.3,392.3 672.7,360.7 668.4,357.9 649,389.6 	"/>
	<polygon class="st2" points="655.3,329.5 622.7,346.8 625.1,351.4 657.7,334.1 	"/>
	<polygon class="st2" points="686.8,357.5 708.7,347 708.7,341.2 684.6,352.8 	"/>
	<polygon class="st2" points="663.1,251.1 663.9,246 635.5,241.8 634.7,247 	"/>
	<polygon class="st2" points="708.6,284.9 708.7,284.9 708.7,279 706.2,280.4 	"/>
	<polygon class="st2" points="654.5,215.7 646.2,229.1 650.6,231.8 658.8,218.4 	"/>
	<polygon class="st2" points="524,43.2 515.8,56.6 520.1,59.3 528.3,45.9 	"/>
	<polygon class="st2" points="624.1,252.6 629,251 624.3,236 619.5,237.5 	"/>
	<polygon class="st2" points="508.6,210.1 503.7,211.7 508.4,226.7 513.3,225.1 	"/>
	<polygon class="st2" points="585.9,233.2 573.5,242.8 576.6,246.9 589,237.3 	"/>
	<polygon class="st2" points="512.2,135.4 507.3,137 517.3,169.1 522.2,167.5 	"/>
	<polygon class="st2" points="470.1,159.7 494.8,182.3 498.2,178.4 473.5,155.9 	"/>
	<polygon class="st2" points="454.9,155.3 398.3,162.3 398.9,167.5 455.6,160.5 	"/>
	<polygon class="st2" points="539.8,141.3 534.9,142.9 539.6,157.9 544.4,156.3 	"/>
	<polygon class="st2" points="696.6,219.9 704.8,206.5 700.5,203.8 692.3,217.2 	"/>
	<polygon class="st2" points="614.8,172.3 630.4,173.1 630.6,168 615.1,167.2 	"/>
	<polygon class="st2" points="638.3,54.7 653.9,55.5 654.1,50.3 638.6,49.5 	"/>
	<polygon class="st2" points="583,87.7 587.1,102.9 592,101.6 588,86.4 	"/>
	<polygon class="st2" points="662,162.3 666.4,165 674.6,151.6 670.3,148.9 	"/>
	<polygon class="st2" points="573,53.3 589.2,27 584.8,24.2 568.7,50.6 	"/>
	<polygon class="st2" points="495.2,14.6 487,28 491.3,30.7 499.5,17.3 	"/>
	<polygon class="st2" points="419.3,425.2 434.6,425.2 434.5,423.9 	"/>
	<polygon class="st2" points="446.9,349.9 444,345.7 419.5,363.1 422.4,367.3 	"/>
	<polygon class="st2" points="641.6,403.1 637.3,400.4 629.1,413.8 633.4,416.5 	"/>
	<polygon class="st2" points="567,234.9 612.6,134.3 607.9,132.2 562.4,232.8 	"/>
	<polygon class="st2" points="237.5,72.5 218.7,57.9 215.6,62 234.4,76.6 	"/>
	<polygon class="st2" points="194.5,43 247.3,36.8 246.7,31.6 194,37.9 	"/>
	<polygon class="st2" points="189.5,291.6 205.9,240.4 201,238.8 184.7,290 	"/>
	<polygon class="st2" points="153.1,232.2 183.1,187.7 178.9,184.8 148.9,229.2 	"/>
	<polygon class="st2" points="287,38.2 299.1,0 293.8,0 282.2,36.7 	"/>
	<polygon class="st2" points="308.6,167.1 295.2,198 299.9,200 313.3,169.2 	"/>
	<polygon class="st2" points="484.2,336.7 497.8,344.7 500.4,340.2 486.7,332.2 	"/>
	<polygon class="st2" points="373.7,382.4 364.4,376.1 361.6,380.4 370.8,386.7 	"/>
	<polygon class="st2" points="213.4,407.9 210.5,412.2 219.7,418.5 222.6,414.2 	"/>
	<polygon class="st2" points="415.4,343.8 418.2,339.5 409,333.2 406.2,337.5 	"/>
	<polygon class="st2" points="227.8,275.7 230.7,271.4 221.5,265.1 218.6,269.4 	"/>
	<polygon class="st2" points="182.5,230 173.2,223.7 170.4,228 179.6,234.3 	"/>
	<polygon class="st2" points="221,131.7 235.6,140 238.1,135.4 223.5,127.2 	"/>
	<polygon class="st2" points="288.8,248.9 291.3,253.4 315,239.7 312.5,235.2 	"/>
	<polygon class="st2" points="220.9,199.7 223.7,195.4 202.1,180.6 199.3,184.9 	"/>
	<polygon class="st2" points="392.8,233.7 357.4,209.5 354.5,213.8 389.9,238 	"/>
	<polygon class="st2" points="350.8,364.9 353.7,360.6 321.3,338.5 318.4,342.8 	"/>
	<polygon class="st2" points="395.8,338.5 363.4,316.3 360.5,320.6 392.9,342.8 	"/>
	<polygon class="st2" points="335.3,186.4 345,208.5 349.7,206.4 340,184.3 	"/>
	<polygon class="st2" points="289.8,364.2 312.1,379.4 314.9,375.2 292.6,359.9 	"/>
	<polygon class="st2" points="228.9,219.1 230.3,214.1 185.4,201.2 184,206.1 	"/>
	<polygon class="st2" points="201.2,12.4 252.7,3.7 252.1,0 243.6,0 200.4,7.3 	"/>
	<polygon class="st2" points="242.8,161.9 275,156.5 274.2,151.4 242,156.8 	"/>
	<polygon class="st2" points="262.6,117.1 263.5,122.3 295.6,116.8 294.8,111.7 	"/>
	<polygon class="st2" points="184.4,360.3 185.2,365.4 236.7,356.7 235.8,351.6 	"/>
	<polygon class="st2" points="232.9,201.8 284.3,193.2 283.5,188 232,196.7 	"/>
	
		<rect x="265.1" y="200.2" transform="matrix(1.411226e-03 -1 1 1.411226e-03 52.619 482.1464)" class="st2" width="5.2" height="29"/>
	<polygon class="st2" points="309.8,40.8 292.1,52.3 294.9,56.6 312.6,45.1 	"/>
	<polygon class="st2" points="236.1,122.1 328.3,54.7 325.3,50.5 233.1,117.9 	"/>
	<polygon class="st2" points="323.2,270.4 265.4,266 265,271.1 322.8,275.5 	"/>
	
		<rect x="421.6" y="244.6" transform="matrix(0.9999 -1.377785e-02 1.377785e-02 0.9999 -3.4848 5.8681)" class="st2" width="5.1" height="22.5"/>
	<polygon class="st2" points="321.6,265.4 355.8,236.6 352.6,232.7 318.4,261.5 	"/>
	<polygon class="st2" points="352.8,279.8 364.3,252.6 359.6,250.6 348.1,277.7 	"/>
	<polygon class="st2" points="211.8,108.3 216.5,110.4 228,83.2 223.3,81.2 	"/>
	<polygon class="st2" points="337,402.5 327.4,425.2 332.9,425.2 341.7,404.5 	"/>
	
		<rect x="170" y="328.7" transform="matrix(0.9995 -3.157034e-02 3.157034e-02 0.9995 -10.9384 5.6215)" class="st2" width="5.1" height="41"/>
	<polygon class="st2" points="253.5,329.5 257.2,326 229.3,296.2 225.6,299.8 	"/>
	<polygon class="st2" points="327.2,327.7 331.4,324.8 309.1,290.6 304.9,293.5 	"/>
	<polygon class="st2" points="340.7,45.8 318.3,11.6 314.1,14.5 336.4,48.7 	"/>
	<polygon class="st2" points="261.8,353.7 257,355.3 267,387.3 271.8,385.8 	"/>
	<polygon class="st2" points="186.7,408.6 191.4,423.6 196.2,422 191.6,407 	"/>
	<polygon class="st2" points="158.8,74 154.1,59 149.3,60.5 153.9,75.6 	"/>
	<polygon class="st2" points="258.4,71.7 263.3,70.1 258.6,55.1 253.7,56.6 	"/>
	<polygon class="st2" points="200.8,78.6 210.8,66.6 207,63.2 196.9,75.2 	"/>
	<polygon class="st2" points="317.2,124.5 313.2,109.3 308.3,110.7 312.3,125.9 	"/>
	<polygon class="st2" points="347.3,144.4 352.2,143.1 348.1,127.8 343.2,129.2 	"/>
	<polygon class="st2" points="452.2,379.4 460.4,366 456.1,363.3 447.9,376.7 	"/>
	<polygon class="st2" points="324.6,86.5 329.6,87.2 331.9,71.6 326.9,70.9 	"/>
	<polygon class="st2" points="375.8,405 380.1,407.7 388.4,394.3 384,391.6 	"/>
	<polygon class="st2" points="389,207.3 377.8,196.4 374.2,200.1 385.4,211.1 	"/>
	<polygon class="st2" points="381.4,181.8 384.9,178 373.8,167.1 370.2,170.8 	"/>
	<polygon class="st2" points="430.7,130.6 422.7,144.2 427.1,146.8 435.1,133.3 	"/>
	<polygon class="st2" points="332,130.4 377.6,29.9 372.9,27.7 327.4,128.3 	"/>
	<polygon class="st2" points="55.6,76.3 55.3,81.5 129.4,85.9 129.4,80.7 	"/>
	<polygon class="st2" points="119.2,104.6 119.8,109.7 129.4,108.6 129.4,103.4 	"/>
	<polygon class="st2" points="129.4,194.4 129.4,189.2 84.7,196.7 85.5,201.8 	"/>
	<polygon class="st2" points="129.4,279.8 81.8,314.6 84.8,318.8 129.4,286.2 	"/>
	<polygon class="st2" points="82.2,20 81.8,25.1 129.4,28.7 129.4,23.5 	"/>
	<polygon class="st2" points="129.4,51.3 129.4,51.3 118.6,39.6 114.9,43.2 129.4,58.8 	"/>
	<polygon class="st2" points="119.5,399.7 117.5,404.4 129.4,409.5 129.4,403.9 	"/>
	<polygon class="st2" points="129.4,313.6 104.8,320.3 106.1,325.3 129.4,318.9 	"/>
	<polygon class="st2" points="129.4,338.2 111.7,335.3 110.9,340.4 129.4,343.4 	"/>
	<polygon class="st2" points="39.6,349 38.9,354.1 129.4,367.2 129.4,362 	"/>
	<polygon class="st2" points="62.5,421.5 88,425.2 124,425.2 63.3,416.4 	"/>
	<polygon class="st2" points="115.7,275.6 129.4,232.3 129.4,215.4 110.9,274 	"/>
	<polygon class="st2" points="129.4,382.5 67.7,397.5 68.9,402.6 129.4,387.8 	"/>
	<polygon class="st2" points="129.4,0.6 128.3,0 118.1,0 129.4,6.6 	"/>
	<polygon class="st2" points="30.2,55.3 13.1,126 18,127.2 35.2,56.5 	"/>
	<polygon class="st2" points="129.4,146.3 109.5,101.1 104.8,103.2 129.4,159 	"/>
	<polygon class="st2" points="25.8,392.3 0,411.4 0,417.8 28.8,396.5 	"/>
	<polygon class="st2" points="68.5,5.9 86.8,0 69.9,0 66.9,1 	"/>
	<polygon class="st2" points="88.1,247.6 87.5,252.7 98.5,254.1 99.1,249 	"/>
	<polygon class="st2" points="40.5,218 24.8,214.7 23.8,219.7 39.4,223 	"/>
	<polygon class="st2" points="9.2,221.4 6.3,225.7 32.9,243.8 35.8,239.5 	"/>
	<polygon class="st2" points="104.9,142.1 102,146.4 111.2,152.7 114.1,148.4 	"/>
	<polygon class="st2" points="89,330 86.2,334.3 95.4,340.6 98.3,336.3 	"/>
	<polygon class="st2" points="108.1,375.8 105.9,371.1 95.9,376 98.1,380.6 	"/>
	<polygon class="st2" points="35.3,404.1 33.6,409 44,412.8 45.8,407.9 	"/>
	<polygon class="st2" points="6.1,390.2 0,386.1 0,392.3 3.2,394.5 	"/>
	<polygon class="st2" points="35,29.5 32.1,33.8 41.4,40.1 44.2,35.8 	"/>
	<polygon class="st2" points="28.4,129.9 25.6,134.2 34.8,140.5 37.6,136.2 	"/>
	<polygon class="st2" points="30,181.2 32.9,176.9 23.6,170.6 20.8,174.9 	"/>
	<polygon class="st2" points="103.6,122.1 94.3,115.8 91.5,120.1 100.7,126.4 	"/>
	<polygon class="st2" points="67.4,180.8 64.6,185 79.7,195.3 82.5,191.1 	"/>
	<polygon class="st2" points="0,25.9 0,26 0.1,26 	"/>
	<polygon class="st2" points="27,14.8 0,13.2 0,18.4 26.7,20 	"/>
	<polygon class="st2" points="94.4,49 93.8,43.8 41.1,50.1 41.6,55.3 	"/>
	<polygon class="st2" points="12.9,38.8 0,40.9 0,46.2 13.7,43.9 	"/>
	<polygon class="st2" points="23.1,424.6 24.5,425.2 38.4,425.2 25,419.8 	"/>
	<polygon class="st2" points="65.6,164.5 0,212.6 0,218.9 68.6,168.7 	"/>
	<polygon class="st2" points="5.5,67.3 0,71.8 0,78.4 8.7,71.3 	"/>
	<polygon class="st2" points="106.7,53.6 96.9,62.2 100.2,66.1 110,57.5 	"/>
	<polygon class="st2" points="114.7,220.3 94.2,211.6 92.2,216.3 112.7,225.1 	"/>
	
		<rect x="56.5" y="197.4" transform="matrix(0.9999 -1.378668e-02 1.378668e-02 0.9999 -2.871 0.8339)" class="st2" width="5.1" height="22.5"/>
	<polygon class="st2" points="67.8,306.4 80.8,288.2 76.7,285.1 63.6,303.3 	"/>
	<polygon class="st2" points="63,378.4 50,396.6 54.1,399.7 67.1,381.5 	"/>
	<polygon class="st2" points="83.5,98.3 75.3,119.2 80,121.1 88.3,100.2 	"/>
	
		<rect x="87.2" y="167.6" transform="matrix(0.9999 -1.298542e-02 1.298542e-02 0.9999 -2.2018 1.2908)" class="st2" width="22.2" height="5.2"/>
	<polygon class="st2" points="96.6,135.2 0,161.4 0,166.8 97.9,140.2 	"/>
	<polygon class="st2" points="84.7,234.9 44.7,228.5 43.9,233.6 83.9,240.1 	"/>
	<polygon class="st2" points="27.6,329 26.8,334.1 66.8,340.6 67.6,335.5 	"/>
	<polygon class="st2" points="36.8,376.5 0,361.7 0,367.3 34.9,381.3 	"/>
	<polygon class="st2" points="61.7,256.5 0,247.5 0,252.8 61,261.6 	"/>
	<polygon class="st2" points="55.6,307.7 0,321.3 0,326.6 56.8,312.7 	"/>
	<polygon class="st2" points="67.7,21.9 30,0 19.7,0 65.2,26.4 	"/>
	<polygon class="st2" points="8.7,147.5 0,127.7 0,140.4 4.1,149.6 	"/>
	<polygon class="st2" points="96.8,263.7 15.2,282.4 16.4,287.4 97.9,268.7 	"/>
	<polygon class="st2" points="10.7,298.5 2.5,311.9 6.8,314.6 15,301.2 	"/>
	<polygon class="st2" points="9.1,266.2 0,271.2 0,277 11.5,270.8 	"/>
	<polygon class="st2" points="20.4,340.9 12.2,354.3 16.5,357 24.7,343.6 	"/>
	<polygon class="st2" points="50.2,87.7 46,139.9 51.1,140.4 55.3,88.1 	"/>
</g>
</svg>
