<?xml version="1.0" encoding="utf-8"?>
<!-- Generator: Adobe Illustrator 22.0.1, SVG Export Plug-In . SVG Version: 6.00 Build 0)  -->
<svg version="1.1" id="Layer_1" xmlns="http://www.w3.org/2000/svg" xmlns:xlink="http://www.w3.org/1999/xlink" x="0px" y="0px"
	 viewBox="0 0 708.6 425.3" style="enable-background:new 0 0 708.6 425.3;" xml:space="preserve">
<style type="text/css">
	.st0{display:none;fill:#00C3FF;}
	.st1{opacity:8.000000e-02;}
	.st2{fill:#FFFFFF;}
</style>
<rect class="st0" width="708.7" height="425.2"/>
<g class="st1">
	<path class="st2" d="M707.4,372.6c-0.7-0.5-1.6-0.7-2.5-0.7c-4.3,0.1-8.5-1.1-11.9-3.4s-6.1-5.8-7.6-9.9c-0.3-0.9-0.9-1.6-1.6-2
		c-1-0.7-2.3-0.8-3.4-0.4c-2.1,0.8-3.1,3.7-2.2,6.1c2.1,5.5,5.6,10,10.2,13.1c4.6,3.1,10,4.7,15.7,4.6h0.1h0.2
		c1.9-0.1,3.5-1.2,4.2-2.7V374C708.4,373.4,708,372.9,707.4,372.6z"/>
	<path class="st2" d="M703.9,416c-1,0.7-1.5,1.9-1.5,3.1c0,2.3,2.4,4.2,4.9,4.2c0.5,0,0.9,0,1.4-0.1V415c-0.8,0.1-1.6,0.2-2.4,0.2
		C705.4,415.2,704.6,415.5,703.9,416z"/>
	<path class="st2" d="M652.3,324.2c-4.5,3.1-8,7.6-10.1,13v0.1l-0.1,0.1c-0.8,2.4,0.2,5.2,2.3,6c1.1,0.4,2.4,0.3,3.4-0.4
		c0.7-0.5,1.3-1.2,1.6-2.1c1.5-4.1,4.2-7.5,7.6-9.9c0.1-0.1,0.3-0.2,0.4-0.3c3.3-2.2,7.3-3.3,11.5-3.2c0.9,0,1.8-0.2,2.5-0.7
		c1-0.7,1.6-1.8,1.6-3c0-2.3-2.2-4.3-4.8-4.4c-3.8-0.1-7.4,0.6-10.8,1.9C655.6,322.2,653.9,323.1,652.3,324.2z"/>
	<path class="st2" d="M625.7,387.3c3.5,4.7,8.1,8.1,13.3,9.8c5.2,1.7,10.9,1.8,16.3,0.1h0.1h0.1c0.7-0.2,1.3-0.6,1.8-1.1
		c1.3-1.2,2-2.9,1.5-4.4c-0.3-0.9-0.8-1.6-1.5-2c-0.3-0.2-0.6-0.3-0.9-0.4c-0.8-0.3-1.7-0.3-2.6,0c-4.2,1.3-8.4,1.3-12.4,0
		c-3.9-1.3-7.4-3.9-10-7.4c-0.5-0.7-1.3-1.3-2.1-1.5c-1.2-0.4-2.4-0.2-3.4,0.6C624.3,382.1,624.1,385.2,625.7,387.3z"/>
	<path class="st2" d="M360.5,301.6c0-0.1,0-0.2,0.1-0.3c1.2-4,3.6-7.6,7-10.3c0.7-0.6,1.2-1.3,1.5-2.1c0.4-1.2,0.1-2.4-0.6-3.4
		c-1.4-1.8-4.4-1.9-6.4-0.3c-4.5,3.6-7.8,8.4-9.4,13.8c-0.3,0.9-0.5,1.8-0.6,2.7c-0.9,4.6-0.5,9.3,1,13.9v0.1l0.1,0.1
		c0.9,2.4,3.4,3.9,5.5,3.2c1.2-0.4,2-1.3,2.4-2.5c0.2-0.8,0.2-1.7-0.1-2.6C359.5,309.8,359.4,305.5,360.5,301.6z"/>
	<path class="st2" d="M575.9,307.9c0.7,0.6,1.5,1,2.3,1.1c1.2,0.1,2.4-0.3,3.2-1.2c1.4-1.6,1.1-4.4-0.5-6.1
		c-0.1-0.1-0.2-0.2-0.3-0.3c-4.3-3.9-9.5-6.3-15-6.9s-11,0.5-16,3.3l-0.1,0.1l-0.1,0.1c-1.4,0.9-2.4,2.3-2.5,3.8
		c-0.1,0.8,0,1.5,0.4,2.2c0.6,1.1,1.6,1.8,2.8,1.9c0.9,0.1,1.7-0.1,2.5-0.5c3.8-2.1,8-3,12.1-2.5C568.8,303.2,572.7,305,575.9,307.9
		z"/>
	<path class="st2" d="M500.3,309.5c-2.9-2-5.2-4.7-6.8-7.9c-0.3-0.6-0.6-1.3-0.9-2c-0.3-0.9-0.9-1.6-1.6-2c-1-0.7-2.3-0.8-3.4-0.4
		c-1.6,0.6-2.6,2.5-2.5,4.4c0,0.6,0.1,1.2,0.3,1.7c2.1,5.5,5.6,10,10.2,13.1s10,4.7,15.7,4.6h0.1h0.2c2.5-0.1,4.7-2.1,4.6-4.4
		c0-1.2-0.6-2.3-1.6-3c-0.7-0.5-1.6-0.7-2.5-0.7C507.9,313,503.8,311.8,500.3,309.5z"/>
	<path class="st2" d="M459.9,322.5l-0.1-0.1c-1.6-2-4.5-2.5-6.2-1.2c-1,0.8-1.5,1.9-1.4,3.1c0,0.9,0.4,1.7,0.9,2.4
		c2.7,3.5,4.2,7.5,4.4,11.7c0.2,4.2-0.9,8.4-3.2,12.1c-0.5,0.8-0.7,1.6-0.7,2.5c0.1,1.2,0.7,2.3,1.7,3c1.9,1.2,4.8,0.3,6.2-1.9
		c3.1-5,4.6-10.5,4.3-16.1C465.5,332.4,463.5,327.1,459.9,322.5L459.9,322.5z"/>
	<path class="st2" d="M380.7,348.2c-4.7-2.9-10.1-4.3-15.9-4h-0.1h-0.2c-2.5,0.2-4.6,2.3-4.5,4.5c0.1,1.2,0.7,2.3,1.7,3
		c0.7,0.5,1.6,0.7,2.5,0.6c4.3-0.2,8.5,0.8,12,3s6.3,5.5,8,9.6c0.4,0.8,0.9,1.5,1.7,2c1,0.7,2.3,0.8,3.4,0.3c2.1-0.9,3-3.8,2-6.2
		C389.1,355.6,385.4,351.2,380.7,348.2z"/>
	<path class="st2" d="M326.9,375.4c4.6,3.1,10,4.7,15.7,4.6h0.1h0.2c2.5-0.1,4.7-2.1,4.6-4.4c0-1.2-0.6-2.3-1.6-3
		c-0.7-0.5-1.6-0.7-2.5-0.7c-4.3,0.1-8.5-1.1-11.9-3.4s-6.1-5.8-7.6-9.9c-0.3-0.9-0.9-1.6-1.6-2c-1-0.7-2.3-0.8-3.4-0.4
		c-2.1,0.8-3.1,3.7-2.2,6.1C318.8,367.7,322.3,372.3,326.9,375.4z"/>
	<path class="st2" d="M371,404.7v-0.1v-0.1c0.8-2.5-0.4-5.2-2.5-5.9c-1.2-0.4-2.4-0.2-3.4,0.5c-0.7,0.5-1.2,1.2-1.5,2.1
		c-1.4,4.2-3.9,7.7-7.3,10.1c-3.4,2.5-7.4,3.8-11.8,3.9c-0.9,0-1.7,0.3-2.4,0.8c-1,0.7-1.5,1.9-1.5,3.1c0,2.3,2.4,4.2,4.9,4.2
		c5.8-0.1,11.2-1.9,15.7-5.2C365.8,414.8,369.2,410.2,371,404.7z"/>
	<path class="st2" d="M397.4,315.1c-1-0.7-2.3-0.8-3.4-0.4c-2.1,0.8-3.1,3.7-2.2,6.1c2.1,5.5,5.6,10,10.2,13.1s10,4.7,15.7,4.6h0.1
		h0.2c2.5-0.1,4.7-2.1,4.6-4.4c0-1.2-0.6-2.3-1.6-3c-0.7-0.5-1.6-0.7-2.5-0.7c-4.3,0.1-8.5-1.1-11.9-3.4s-6.1-5.8-7.6-9.9
		C398.7,316.3,398.1,315.6,397.4,315.1z"/>
	<path class="st2" d="M444.7,385h0.2c2.5-0.1,4.7-2.1,4.6-4.4c0-1.2-0.6-2.3-1.6-3c-0.7-0.5-1.6-0.7-2.5-0.7
		c-4.3,0.1-8.5-1.1-11.9-3.4s-6.1-5.8-7.6-9.9c-0.3-0.9-0.9-1.6-1.6-2c-1-0.7-2.3-0.8-3.4-0.4c-2.1,0.8-3.1,3.7-2.2,6.1
		c2.1,5.5,5.6,10,10.2,13.1S438.9,385.1,444.7,385L444.7,385z"/>
	<path class="st2" d="M406.3,401.3c-0.3-4.2,0.8-8.4,3-12.2c0.5-0.8,0.7-1.7,0.6-2.5c-0.1-1.2-0.7-2.3-1.8-2.9
		c-1.9-1.2-4.8-0.2-6.1,2c-3,5-4.4,10.6-4,16.2s2.5,10.9,6.1,15.4l0.1,0.1l0.1,0.1c1.7,2,4.5,2.4,6.2,1c1-0.8,1.5-1.9,1.4-3.2
		c-0.1-0.9-0.4-1.7-1-2.4C408.2,409.5,406.6,405.5,406.3,401.3z"/>
	<path class="st2" d="M606.1,335.1c-0.1-1.2-0.8-2.3-1.8-2.9c-1.9-1.2-4.8-0.2-6.1,2.1c-2.9,5-4.3,10.7-3.9,16.2
		c0.4,5.5,2.6,10.9,6.2,15.3l0.1,0.1l0.1,0.1c1.7,1.9,4.5,2.4,6.3,1c0.9-0.8,1.4-1.9,1.3-3.2c-0.1-0.9-0.4-1.7-1-2.4
		c-2.8-3.4-4.4-7.4-4.7-11.6s0.7-8.4,2.9-12.2C606,336.8,606.2,335.9,606.1,335.1z"/>
	<path class="st2" d="M528.6,339.4c0.4,0.7,1.1,1.3,1.9,1.7c4,1.8,7.2,4.6,9.3,8.2s3.1,7.8,2.8,12.2c-0.1,0.9,0.1,1.8,0.6,2.5
		c0.6,1.1,1.7,1.7,2.9,1.8c2.2,0.2,4.4-2,4.5-4.6c0.4-5.8-0.9-11.5-3.7-16.3s-7.1-8.5-12.3-10.9l-0.1-0.1l-0.1-0.1
		c-2.4-1-5.1-0.1-6,2C527.9,337.1,528,338.3,528.6,339.4z"/>
	<path class="st2" d="M501.8,358.3c-0.1-1.2-0.8-2.3-1.8-2.9c-1.9-1.2-4.8-0.2-6.1,2.1c-2.9,5-4.3,10.7-3.9,16.2s2.6,10.9,6.2,15.3
		l0.1,0.1l0.1,0.1c1.7,1.9,4.5,2.4,6.3,1c0.9-0.8,1.4-1.9,1.3-3.2c-0.1-0.9-0.4-1.7-1-2.4c-2.8-3.4-4.4-7.4-4.7-11.6
		c-0.3-4.2,0.7-8.4,2.9-12.2C501.6,360,501.8,359.2,501.8,358.3z"/>
	<path class="st2" d="M550.6,402.5v-0.1v-0.1c0.6-2.5-0.8-5.1-2.9-5.7c-1.2-0.3-2.4,0-3.3,0.8c-0.7,0.6-1.1,1.3-1.4,2.2
		c-1.1,4.3-3.3,8-6.5,10.7s-7.1,4.4-11.4,4.8c-0.9,0.1-1.7,0.4-2.4,1c-0.9,0.8-1.4,2-1.3,3.2c0.2,2.3,2.7,4,5.2,3.8
		c5.8-0.5,11-2.7,15.2-6.4C546.1,413,549.1,408.1,550.6,402.5z"/>
	<path class="st2" d="M485.5,419.1v-0.2c0.2-2.6-1.5-5-3.7-5.2c-1.2-0.1-2.4,0.3-3.2,1.3c-0.6,0.7-0.9,1.5-1,2.4
		c-0.3,2.8-1.1,5.4-2.3,7.8h8.9C484.8,423.3,485.3,421.3,485.5,419.1L485.5,419.1z"/>
	<path class="st2" d="M604.4,396.1c-5.7-0.6-11.3,0.6-16.2,3.3c-4.8,2.7-8.6,6.9-11.1,12.2l-0.1,0.1l-0.1,0.1
		c-1,2.4-0.2,5.2,1.8,6.2c1.1,0.5,2.3,0.5,3.4-0.1c0.7-0.4,1.3-1.1,1.7-1.9c1.9-4,4.8-7.2,8.4-9.2c3.6-2.1,7.8-2.9,12.1-2.5
		c0.9,0.1,1.8-0.1,2.5-0.5c1.1-0.6,1.7-1.7,1.9-2.9C609,398.5,607,396.3,604.4,396.1z"/>
	<path class="st2" d="M655.3,30.6L655.3,30.6h0.2c0.7-0.2,1.3-0.6,1.8-1.1c1.3-1.2,2-2.9,1.5-4.4c-0.3-0.9-0.8-1.6-1.5-2l0,0
		c-0.3-0.2-0.6-0.3-0.9-0.4c-0.8-0.3-1.7-0.3-2.6,0c-4.2,1.3-8.4,1.3-12.4,0c-3.9-1.3-7.4-3.9-10-7.4c-0.5-0.7-1.3-1.3-2.1-1.5
		c-1.2-0.4-2.4-0.2-3.4,0.6c-1.8,1.4-2,4.4-0.5,6.5c3.5,4.7,8.1,8.1,13.3,9.8C644.2,32.3,649.9,32.3,655.3,30.6z"/>
	<path class="st2" d="M634.5,194.9c2.5,5.3,6.4,9.5,11.3,12.2c3.6,2,7.5,3.1,11.6,3.3c1.4,0.1,2.9,0,4.4-0.1h0.1h0.1
		c2.5-0.3,4.5-2.5,4.2-4.8c-0.1-1.2-0.8-2.3-1.9-2.9c-0.7-0.4-1.6-0.6-2.5-0.5c-1.5,0.2-3,0.2-4.5,0c-2.7-0.3-5.3-1.1-7.6-2.4
		c-3.6-2-6.5-5.2-8.4-9.2c-0.4-0.8-1-1.5-1.8-1.9c-1.1-0.6-2.3-0.6-3.4-0.1C634.1,189.6,633.4,192.6,634.5,194.9z"/>
	<path class="st2" d="M310.8,71.5c-4.5-2.4-9.7-3.4-15-2.9c-0.4,0-0.8,0.1-1.2,0.1h-0.1h-0.1c-2.5,0.4-4.4,2.7-4.1,4.9
		c0.2,1.2,0.9,2.3,2,2.8c0.8,0.4,1.6,0.5,2.5,0.4c0.3,0,0.7-0.1,1-0.1c3.9-0.4,7.8,0.4,11.2,2.1c3.7,1.9,6.7,5,8.7,8.9
		c0.4,0.8,1,1.4,1.8,1.8c1.1,0.6,2.3,0.6,3.4,0c2-1.1,2.7-4,1.5-6.4C319.7,78.2,315.7,74.1,310.8,71.5z"/>
	<path class="st2" d="M306.2,273.9c3.4-2.3,7.5-3.5,11.9-3.5c0.9,0,1.8-0.2,2.5-0.7c1-0.7,1.6-1.8,1.6-3c0-2.3-2.2-4.3-4.8-4.4
		c-5.8-0.1-11.3,1.5-15.8,4.6c-2.2,1.5-4.1,3.3-5.7,5.3c-1.8,2.3-3.3,4.9-4.4,7.7v0.1l-0.1,0.1c-0.8,2.4,0.2,5.2,2.3,6
		c0.7,0.3,1.5,0.3,2.2,0.1c0.4-0.1,0.8-0.3,1.2-0.5c0.7-0.5,1.3-1.2,1.6-2.1C300.1,279.7,302.8,276.2,306.2,273.9z"/>
	<path class="st2" d="M292.4,131.8c1.6,2.2,2.7,4.6,3.4,7.2l0,0c0.4,1.5,0.6,3.1,0.6,4.7c0,1.8-0.2,3.6-0.6,5.4
		c-0.6,2.3-1.6,4.5-3,6.6c-0.5,0.8-0.8,1.6-0.7,2.5c0,1.2,0.6,2.4,1.6,3c0.6,0.4,1.3,0.6,2.1,0.6c1.5,0,3.2-0.8,4.1-2.3
		c3.2-4.9,4.9-10.4,4.8-16s-1.9-11-5.3-15.7l-0.1-0.1l-0.1-0.1c-0.9-1.2-2.2-1.9-3.5-2c-1-0.1-1.9,0.1-2.7,0.7
		c-1,0.7-1.5,1.9-1.5,3.1C291.6,130.2,291.9,131,292.4,131.8z"/>
	<path class="st2" d="M569.9,264.3c2.1,5.5,5.6,10,10.2,13.1c4.6,3.1,10,4.7,15.7,4.6h0.1h0.2c2.5-0.1,4.7-2.1,4.6-4.4
		c0-1.2-0.6-2.3-1.6-3c-0.7-0.5-1.6-0.7-2.5-0.7c-4.3,0.1-8.5-1.1-11.9-3.4s-6.1-5.8-7.6-9.9c-0.3-0.9-0.9-1.6-1.6-2
		c-1-0.7-2.3-0.8-3.4-0.4C570,259,569,261.9,569.9,264.3z"/>
	<path class="st2" d="M347.6,207.8c-0.3,1.2-0.1,2.4,0.7,3.4c0.5,0.7,1.3,1.2,2.2,1.4c4.2,1.2,7.8,3.6,10.4,6.8
		c2.6,3.3,4.1,7.3,4.4,11.7c0.1,0.9,0.4,1.8,0.9,2.4c0.8,1,1.9,1.5,3.1,1.4c2.2-0.2,4-2.6,3.9-5.2c-0.4-5.8-2.4-11.2-5.9-15.6
		c-3.5-4.3-8.2-7.5-13.7-9.1h-0.1h-0.1C350.9,204.3,348.3,205.6,347.6,207.8z"/>
	<path class="st2" d="M386,0.4c1,0.7,2.3,0.8,3.4,0.3c0.4-0.2,0.7-0.4,1-0.7h-4.9C385.6,0.1,385.8,0.3,386,0.4z"/>
	<path class="st2" d="M383.5,78.5l-0.1-0.1c-1.9-1.8-4.8-1.9-6.3-0.3c-0.9,0.9-1.2,2.1-1,3.3c0.2,0.9,0.6,1.6,1.2,2.3
		c3.1,3.1,5.1,6.9,5.9,11s0.2,8.4-1.6,12.4c-0.4,0.8-0.5,1.7-0.3,2.6c0.2,1.2,1,2.2,2.1,2.7c2,0.9,4.8-0.3,5.9-2.7
		c2.4-5.3,3.1-11.1,2.1-16.6C390.3,87.7,387.6,82.6,383.5,78.5L383.5,78.5z"/>
	<path class="st2" d="M483.3,261.4c3.6-4.2,5.9-9.4,6.5-15.2v-0.1v-0.2c0.2-2.6-1.5-5-3.7-5.2c-1.2-0.1-2.4,0.3-3.2,1.2
		c-0.6,0.7-0.9,1.5-1,2.4c-0.5,4.4-2.2,8.4-4.9,11.5c-2.7,3.1-6.4,5.4-10.6,6.4c-0.9,0.2-1.6,0.7-2.2,1.3c-0.8,0.9-1.1,2.2-0.8,3.4
		c0.5,2.2,3.2,3.6,5.7,3C474.8,268.5,479.7,265.6,483.3,261.4z"/>
	<path class="st2" d="M356.1,175.5c0-1.2-0.6-2.3-1.6-3c-0.7-0.5-1.6-0.7-2.5-0.7c-4.3,0.1-8.5-1.1-11.9-3.4
		c-3.4-2.3-6.1-5.8-7.6-9.9c-0.3-0.9-0.9-1.6-1.6-2c-1-0.7-2.3-0.8-3.4-0.4c-2.1,0.8-3.1,3.7-2.2,6.1c2.1,5.5,5.6,10,10.2,13.1
		s10,4.7,15.7,4.6h0.1h0.2C354,179.7,356.1,177.7,356.1,175.5z"/>
	<path class="st2" d="M326.9,8.8c4.6,3.1,10,4.7,15.7,4.6h0.1h0.2c2.5-0.1,4.7-2.1,4.6-4.4c0-1.2-0.6-2.3-1.6-3
		c-0.7-0.5-1.6-0.7-2.5-0.7c-4.3,0.1-8.5-1.1-11.9-3.4c-0.8-0.6-1.6-1.2-2.3-1.9h-10.4C320.8,3.6,323.6,6.6,326.9,8.8z"/>
	<path class="st2" d="M361.4,51.5c4.4-3.3,7.8-7.9,9.7-13.4V38v-0.1c0.8-2.5-0.4-5.2-2.5-5.9c-1.2-0.4-2.4-0.2-3.4,0.5
		c-0.7,0.5-1.2,1.2-1.5,2.1c-1.4,4.2-3.9,7.7-7.3,10.1c-3.4,2.5-7.4,3.8-11.8,3.9c-0.9,0-1.7,0.3-2.4,0.8c-1,0.7-1.5,1.9-1.5,3.1
		c0,2.3,2.4,4.2,4.9,4.2C351.5,56.6,356.9,54.8,361.4,51.5z"/>
	<path class="st2" d="M428.8,13.9c4.6,3.1,10,4.7,15.7,4.6h0.1h0.2c2.5-0.1,4.7-2.1,4.6-4.4c0-1.2-0.6-2.3-1.6-3
		c-0.7-0.5-1.6-0.7-2.5-0.7c-4.3,0.1-8.5-1.1-11.9-3.4c-2.6-1.8-4.7-4.1-6.2-6.9h-8.8c0.1,0.2,0.1,0.5,0.2,0.7
		C420.7,6.2,424.2,10.7,428.8,13.9z"/>
	<path class="st2" d="M383.5,140.9c-1.1,0.5-1.9,1.5-2.1,2.8c-0.4,2.2,1.5,4.6,4.1,5.1c5.7,1,11.3,0.3,16.3-2.1
		c5-2.4,9.1-6.3,12-11.3l0.1-0.1l0.1-0.1c1.2-2.3,0.6-5.1-1.3-6.3c-1.1-0.6-2.3-0.7-3.4-0.1c-0.8,0.4-1.4,1-1.9,1.8
		c-2.2,3.8-5.3,6.8-9,8.6s-8,2.3-12.3,1.6C385.1,140.4,384.3,140.5,383.5,140.9z"/>
	<path class="st2" d="M646.1,243.1c0.9,0.2,1.8,0.2,2.6-0.1c1.2-0.4,2-1.3,2.3-2.5c0.6-2.2-1.1-4.7-3.5-5.4
		c-5.6-1.6-11.3-1.4-16.5,0.4c-5.2,1.8-9.7,5.3-13,10l-0.1,0.1l-0.1,0.1c-1.4,2.1-1.1,5.1,0.7,6.4c1,0.7,2.2,0.9,3.4,0.5
		c0.8-0.3,1.5-0.8,2-1.6c2.5-3.6,5.9-6.2,9.8-7.6C637.6,242,641.9,241.9,646.1,243.1z"/>
	<path class="st2" d="M402,19.1c-3,5-4.4,10.6-4,16.2s2.5,10.9,6.1,15.4l0.1,0.1l0.1,0.1c1.7,2,4.5,2.4,6.2,1c1-0.8,1.5-1.9,1.4-3.2
		c-0.1-0.9-0.4-1.7-1-2.4c-2.7-3.4-4.3-7.4-4.6-11.6c-0.3-4.2,0.8-8.4,3-12.2c0.5-0.8,0.7-1.7,0.6-2.5c-0.1-1.2-0.7-2.3-1.8-2.9
		C406.2,15.9,403.3,16.9,402,19.1z"/>
	<path class="st2" d="M442.8,236.6c-2.8-3.4-4.4-7.4-4.7-11.6c-0.3-4.2,0.7-8.4,2.9-12.2c0.5-0.8,0.7-1.7,0.6-2.5
		c-0.1-1.2-0.8-2.3-1.8-2.9c-1.9-1.2-4.8-0.2-6.1,2.1c-2.9,5-4.3,10.7-3.9,16.2s2.6,10.9,6.2,15.3l0.1,0.1l0.1,0.1
		c1.7,1.9,4.5,2.4,6.3,1c0.9-0.8,1.4-1.9,1.3-3.2C443.7,238.1,443.4,237.3,442.8,236.6z"/>
	<path class="st2" d="M533,248.9c-5.4,2.2-9.8,5.8-12.8,10.5c-3,4.7-4.5,10.2-4.3,16v0.1v0.2c0.2,2.6,2.2,4.7,4.4,4.6
		c1.2,0,2.3-0.7,3-1.7c0.5-0.7,0.7-1.6,0.7-2.5c-0.2-4.4,0.9-8.6,3.2-12.1s5.6-6.2,9.6-7.9c0.8-0.3,1.5-0.9,2-1.6
		c0.7-1,0.8-2.3,0.3-3.4C538.3,248.9,535.4,248,533,248.9z"/>
	<path class="st2" d="M602.6,200.8c-0.1-1.2-0.8-2.3-1.8-2.9c-1.9-1.2-4.8-0.2-6.1,2.1c-2.9,5-4.3,10.7-3.9,16.2
		c0.4,5.5,2.6,10.9,6.2,15.3l0.1,0.1l0.1,0.1c1.7,1.9,4.5,2.4,6.3,1c0.9-0.8,1.4-1.9,1.3-3.2c-0.1-0.9-0.4-1.7-1-2.4
		c-2.8-3.4-4.4-7.4-4.7-11.6c-0.3-4.2,0.7-8.4,2.9-12.2C602.5,202.5,602.7,201.7,602.6,200.8z"/>
	<path class="st2" d="M607,0.4c0.2-0.1,0.3-0.3,0.4-0.4h-6.1C603,1.5,605.4,1.7,607,0.4z"/>
	<path class="st2" d="M618.6,155.8c4-1,8.3-0.7,12.3,1c0.8,0.3,1.7,0.4,2.6,0.2c1.2-0.3,2.1-1.1,2.6-2.3c0.8-2.1-0.6-4.8-3-5.8
		c-5.4-2.1-11.1-2.6-16.4-1.3c-5.3,1.3-10.2,4.3-13.9,8.6l-0.1,0.1l-0.1,0.1c-1.6,2-1.6,4.9,0,6.4c0.9,0.8,2.1,1.1,3.3,0.8
		c0.8-0.2,1.6-0.7,2.2-1.4C610.9,159.1,614.6,156.8,618.6,155.8z"/>
	<path class="st2" d="M602,96.4c1.2-0.3,2.1-1.1,2.6-2.3c0.8-2.1-0.6-4.8-3-5.8c-5.4-2.1-11.1-2.6-16.4-1.3
		c-5.3,1.3-10.2,4.3-13.9,8.6l-0.1,0.1L571,96c-1.6,2-1.6,4.9,0,6.4c0.9,0.8,2.1,1.1,3.3,0.8c0.8-0.2,1.6-0.7,2.2-1.4
		c2.9-3.3,6.5-5.6,10.5-6.6s8.3-0.7,12.3,1C600.3,96.6,601.2,96.6,602,96.4z"/>
	<path class="st2" d="M533.6,82.6L533.6,82.6c-2.5-0.9-5.2,0.2-6,2.3c-0.4,1.2-0.3,2.4,0.4,3.4c0.5,0.7,1.2,1.3,2,1.6
		c4.1,1.5,7.5,4.1,9.8,7.6c2.4,3.5,3.6,7.6,3.6,12c0,0.9,0.3,1.8,0.7,2.5c0.7,1,1.8,1.6,3,1.6c2.2,0,4.2-2.3,4.2-4.9
		c0-5.9-1.6-11.4-4.8-16C543.4,88.1,538.9,84.6,533.6,82.6L533.6,82.6z"/>
	<path class="st2" d="M554.9,147.2c-1.2,0.4-2.1,1.2-2.4,2.4c-0.7,2.2,0.9,4.8,3.3,5.6c5.5,1.8,11.2,1.9,16.5,0.3
		c5.3-1.6,9.9-4.9,13.5-9.4l0.1-0.1l0.1-0.1c1.5-2.1,1.3-5-0.4-6.4c-1-0.8-2.2-1-3.4-0.6c-0.8,0.3-1.5,0.8-2.1,1.5
		c-2.7,3.5-6.2,5.9-10.2,7.2c-4,1.2-8.2,1.1-12.4-0.3C556.6,147,555.8,146.9,554.9,147.2z"/>
	<path class="st2" d="M490,7.1c0.4,5.5,2.6,10.9,6.2,15.3l0.1,0.1l0.1,0.1c1.7,1.9,4.5,2.4,6.3,1c0.9-0.8,1.4-1.9,1.3-3.2
		c-0.1-0.9-0.4-1.7-1-2.4c-2.8-3.4-4.4-7.4-4.7-11.6c-0.2-2.2,0-4.3,0.6-6.5h-8.4C490,2.3,489.8,4.7,490,7.1z"/>
	<path class="st2" d="M550.6,36L550.6,36v-0.2c0.6-2.5-0.8-5.1-2.9-5.7c-1.2-0.3-2.4,0-3.3,0.8c-0.7,0.6-1.1,1.3-1.4,2.2
		c-1.1,4.3-3.3,8-6.5,10.7s-7.1,4.4-11.4,4.8c-0.9,0.1-1.7,0.4-2.4,1c-0.9,0.8-1.4,2-1.3,3.2c0.2,2.3,2.7,4,5.2,3.8
		c5.8-0.5,11-2.7,15.2-6.4C546.1,46.4,549.1,41.6,550.6,36z"/>
	<path class="st2" d="M505.4,201.9c-0.5,1.1-0.5,2.4,0.1,3.5c0.4,0.8,1.1,1.4,1.9,1.8c3.9,2,7,4.9,9,8.6c2,3.7,2.8,7.9,2.3,12.3
		c-0.1,0.9,0.1,1.8,0.5,2.6c0.6,1.1,1.6,1.8,2.8,1.9c2.2,0.2,4.4-1.8,4.7-4.4c0.7-5.8-0.4-11.5-3-16.4s-6.7-8.8-11.8-11.4l-0.1-0.1
		l-0.1-0.1C509.2,199.1,506.4,199.9,505.4,201.9z"/>
	<path class="st2" d="M468.6,174.9c0.2,0.9,0.6,1.6,1.3,2.3c3.2,3,5.3,6.7,6.2,10.9c0.9,4.1,0.4,8.4-1.3,12.5
		c-0.4,0.8-0.4,1.7-0.3,2.6c0.3,1.2,1.1,2.2,2.2,2.7c2.1,0.9,4.8-0.5,5.8-2.9c2.3-5.4,2.8-11.1,1.7-16.6c-1.2-5.4-4-10.4-8.2-14.4
		l-0.1-0.1l-0.1-0.1c-1.9-1.7-4.8-1.8-6.3-0.1C468.6,172.5,468.3,173.7,468.6,174.9z"/>
	<path class="st2" d="M549.4,190.7c-0.6-0.7-1.4-1.1-2.3-1.2c-1.2-0.2-2.4,0.2-3.3,1c-1.6,1.6-1.4,4.7,0.4,6.5
		c4.1,4.2,9.1,6.9,14.5,7.9s11,0.2,16.2-2.2l0.1-0.1l0.1-0.1c2.3-1.1,3.4-3.8,2.5-5.9c-0.5-1.1-1.5-1.9-2.7-2.1
		c-0.8-0.2-1.7,0-2.5,0.3c-3.9,1.9-8.2,2.4-12.3,1.7C556.2,195.9,552.4,193.8,549.4,190.7z"/>
	<path class="st2" d="M519.3,159.1c-2-3.9-2.8-8.1-2.3-12.3s2.3-8.1,5.2-11.4c0.6-0.7,1-1.5,1.1-2.4c0.2-1.2-0.3-2.4-1.2-3.2
		c-1.7-1.5-4.7-1.1-6.4,0.8c-3.9,4.3-6.3,9.6-7,15.1s0.4,11.2,3,16.3l0.1,0.1l0.1,0.1c1.3,2.2,4,3.3,5.9,2.2
		c1.1-0.6,1.8-1.6,1.9-2.8C519.9,160.8,519.7,159.9,519.3,159.1z"/>
	<path class="st2" d="M483.8,112.1c3.6-2.1,7.8-2.9,12.1-2.4c0.9,0.1,1.8-0.1,2.5-0.5c1.1-0.6,1.8-1.7,1.9-2.9
		c0.2-2.3-1.8-4.5-4.4-4.8c-5.7-0.6-11.3,0.5-16.2,3.3c-4.8,2.7-8.6,6.9-11.1,12.1l-0.1,0.1l-0.1,0.1c-1,2.4-0.2,5.2,1.8,6.2
		c1.1,0.5,2.3,0.5,3.4-0.1c0.7-0.4,1.4-1.1,1.7-1.9C477.3,117.3,480.2,114.1,483.8,112.1z"/>
	<path class="st2" d="M426.7,80.2h-0.1c-2.5-0.6-5.1,0.7-5.6,2.9c-0.3,1.2-0.1,2.4,0.7,3.4c0.5,0.7,1.3,1.1,2.2,1.4
		c4.2,1.1,7.8,3.4,10.5,6.7c2.7,3.2,4.3,7.2,4.6,11.6c0.1,0.9,0.4,1.7,1,2.4c0.8,1,1.9,1.4,3.1,1.3c2.2-0.2,4-2.7,3.8-5.3
		c-0.5-5.8-2.6-11.2-6.2-15.5c-3.5-4.3-8.3-7.3-13.8-8.9H426.7z"/>
	<path class="st2" d="M485.5,52.5v-0.2c0.2-2.6-1.5-5-3.7-5.2c-1.2-0.1-2.4,0.3-3.2,1.3c-0.6,0.7-0.9,1.5-1,2.4
		c-0.4,4.4-2.1,8.4-4.8,11.5c-2.7,3.2-6.4,5.4-10.6,6.5c-0.9,0.2-1.6,0.7-2.2,1.3c-0.8,0.9-1.1,2.2-0.8,3.4c0.6,2.2,3.2,3.6,5.7,3
		c5.6-1.4,10.5-4.4,14.1-8.6s5.8-9.5,6.4-15.2L485.5,52.5z"/>
	<path class="st2" d="M451.2,149.3v-0.1v-0.1c0.6-2.5-0.8-5.1-2.9-5.7c-1.2-0.3-2.4,0-3.3,0.8c-0.7,0.6-1.1,1.3-1.4,2.2
		c-1.1,4.3-3.3,8-6.5,10.7s-7.1,4.4-11.4,4.8c-0.9,0.1-1.7,0.4-2.4,1c-0.9,0.8-1.4,2-1.3,3.2c0.2,2.3,2.7,4,5.2,3.8
		c5.8-0.5,11-2.7,15.2-6.4C446.8,159.8,449.8,154.9,451.2,149.3z"/>
	<path class="st2" d="M604.4,29.5c-5.7-0.6-11.3,0.6-16.2,3.3c-4.8,2.7-8.6,6.9-11.1,12.2l-0.1,0.1l-0.1,0.1c-1,2.4-0.2,5.2,1.8,6.2
		c1.1,0.5,2.3,0.5,3.4-0.1c0.7-0.4,1.3-1.1,1.7-1.9c1.9-4,4.8-7.2,8.4-9.2c3.6-2.1,7.8-2.9,12.1-2.5c0.9,0.1,1.8-0.1,2.5-0.5
		c1.1-0.6,1.7-1.7,1.9-2.9C609,32,607,29.8,604.4,29.5z"/>
	<path class="st2" d="M402.2,185.2c0.5-0.8,0.7-1.7,0.6-2.5c-0.1-1.2-0.8-2.3-1.8-2.9c-1.9-1.2-4.8-0.2-6.1,2.1
		c-2.9,5-4.3,10.7-3.9,16.2s2.6,10.9,6.2,15.3l0.1,0.1l0.1,0.1c1.7,1.9,4.5,2.4,6.3,1c0.9-0.8,1.4-1.9,1.3-3.2
		c-0.1-0.9-0.4-1.7-1-2.4c-2.8-3.4-4.4-7.4-4.7-11.6C399,193.3,400,189,402.2,185.2z"/>
	<path class="st2" d="M320.9,242.7c5.3,1.3,11,0.8,16.3-1.3h0.1l0.1-0.1c2.3-1,3.6-3.7,2.8-5.7c-0.4-1.2-1.4-2-2.6-2.3
		c-0.8-0.2-1.7-0.1-2.6,0.2c-4,1.6-8.3,2-12.3,1s-7.7-3.2-10.6-6.5c-0.6-0.7-1.4-1.1-2.2-1.3c-1.2-0.3-2.4,0-3.3,0.9
		c-1.7,1.5-1.6,4.6,0.1,6.5C310.6,238.4,315.5,241.4,320.9,242.7z"/>
	<path class="st2" d="M348.9,112.9c0.2-4.2,1.8-8.2,4.5-11.7c0.6-0.7,0.9-1.6,0.9-2.4c0.1-1.2-0.4-2.4-1.4-3.1
		c-1.8-1.4-4.7-0.8-6.3,1.2c-3.6,4.6-5.6,10-6,15.6c-0.3,5.6,1.1,11.1,4.1,16l0.1,0.1l0.1,0.1c1.4,2.1,4.2,3,6.1,1.8
		c1-0.6,1.7-1.7,1.7-3c0-0.9-0.2-1.7-0.7-2.5C349.8,121.3,348.7,117.1,348.9,112.9z"/>
	<path class="st2" d="M402.4,276.4c2.5-0.1,4.7-2.1,4.6-4.4c0-1.2-0.6-2.3-1.6-3c-0.7-0.5-1.6-0.7-2.5-0.7
		c-4.3,0.1-8.5-1.1-11.9-3.4s-6.1-5.8-7.6-9.9c-0.3-0.9-0.9-1.6-1.6-2c-1-0.7-2.3-0.8-3.4-0.4c-2.1,0.8-3.1,3.7-2.2,6.1
		c2.1,5.5,5.6,10,10.2,13.1s10,4.7,15.7,4.6h0.1L402.4,276.4z"/>
	<path class="st2" d="M641.7,87L641.7,87c-0.8-2.5-3.3-4.1-5.4-3.4c-1.2,0.4-2.1,1.2-2.4,2.4c-0.3,0.8-0.3,1.7,0,2.6
		c1.3,4.2,1.3,8.5,0,12.5s-3.8,7.5-7.3,10.2c-0.7,0.6-1.2,1.3-1.5,2.1c-0.4,1.2-0.2,2.4,0.6,3.4c1.4,1.8,4.4,2,6.4,0.4
		c4.6-3.5,8-8.2,9.7-13.5S643.5,92.7,641.7,87L641.7,87z"/>
	<path class="st2" d="M625.8,278.9l-0.1-0.1c-1.6-2-4.4-2.6-6.2-1.3c-1,0.7-1.5,1.9-1.5,3.1c0,0.9,0.3,1.7,0.8,2.5
		c2.6,3.5,4,7.6,4.1,11.8c0,2.3-0.3,4.5-1,6.7c-0.6,1.8-1.5,3.6-2.6,5.3c-0.5,0.8-0.8,1.6-0.7,2.5c0,1.2,0.6,2.4,1.6,3
		c1.9,1.3,4.8,0.5,6.2-1.7c1.9-2.8,3.2-5.9,4-9.1c0.5-2.3,0.8-4.6,0.8-6.9C631.1,289.1,629.2,283.7,625.8,278.9L625.8,278.9z"/>
	<path class="st2" d="M450.2,290.2c0.9,0,1.8-0.2,2.5-0.7c1-0.7,1.6-1.8,1.6-3c0-2.3-2.2-4.3-4.8-4.4c-5.8-0.1-11.3,1.5-15.8,4.6
		s-8,7.6-10.1,13v0.1l-0.1,0.1c-0.2,0.5-0.3,1-0.3,1.6c-0.1,1.9,0.9,3.8,2.5,4.4c1.1,0.4,2.4,0.3,3.4-0.4c0.7-0.5,1.3-1.2,1.6-2.1
		c0.3-0.7,0.5-1.3,0.9-2c1.6-3.2,3.9-5.9,6.8-7.9C441.8,291.3,445.9,290.1,450.2,290.2z"/>
	<path class="st2" d="M656.2,68.8L656.2,68.8H656c-2.5,0.4-4.4,2.7-4.1,4.9c0.2,1.2,0.9,2.3,2,2.8c0.8,0.4,1.6,0.5,2.5,0.4
		c0.3,0,0.7-0.1,1-0.1c3.9-0.4,7.8,0.4,11.2,2.1c3.7,1.9,6.7,5,8.7,8.9c0.4,0.8,1,1.4,1.8,1.8c1.1,0.6,2.3,0.6,3.4,0
		c2-1.1,2.7-4,1.5-6.4c-2.7-5.2-6.7-9.3-11.6-11.9c-4.5-2.4-9.7-3.4-15-2.9C657,68.7,656.6,68.8,656.2,68.8z"/>
	<path class="st2" d="M657.4,272.3c-1.8,2.3-3.3,4.9-4.4,7.7v0.1l-0.1,0.1c-0.8,2.4,0.2,5.2,2.3,6c0.7,0.3,1.5,0.3,2.2,0.1
		c0.4-0.1,0.8-0.3,1.2-0.5c0.7-0.5,1.3-1.2,1.6-2.1c1.5-4.1,4.2-7.5,7.6-9.9c3.4-2.3,7.5-3.5,11.9-3.5c0.9,0,1.8-0.2,2.5-0.7
		c1-0.7,1.6-1.8,1.6-3c0-2.3-2.2-4.3-4.8-4.4c-5.8-0.1-11.3,1.5-15.8,4.6C661,268.4,659,270.2,657.4,272.3z"/>
	<path class="st2" d="M653.2,129.3c0,0.9,0.3,1.7,0.8,2.5c1.6,2.2,2.7,4.6,3.4,7.2l0,0c0.4,1.5,0.6,3.1,0.6,4.7
		c0,1.8-0.2,3.6-0.6,5.4c-0.6,2.3-1.6,4.5-3,6.6c-0.5,0.8-0.8,1.6-0.7,2.5c0,1.2,0.6,2.4,1.6,3c0.6,0.4,1.3,0.6,2.1,0.6
		c1.5,0,3.2-0.8,4.1-2.3c3.2-4.9,4.9-10.4,4.8-16c-0.1-5.6-1.9-11-5.3-15.7l-0.1-0.1l-0.1-0.1c-0.9-1.2-2.2-1.9-3.5-2
		c-1-0.1-1.9,0.1-2.7,0.7C653.7,126.9,653.1,128,653.2,129.3z"/>
	<path class="st2" d="M694,158.4c-0.3-0.9-0.9-1.6-1.6-2c-1-0.7-2.3-0.8-3.4-0.4c-2.1,0.8-3.1,3.7-2.2,6.1c2.1,5.5,5.6,10,10.2,13.1
		c3.5,2.4,7.4,3.8,11.6,4.4v-8.4c-2.5-0.5-4.9-1.5-7-3C698.2,165.9,695.6,162.5,694,158.4z"/>
	<path class="st2" d="M688.4,8.8c4.6,3.1,10,4.7,15.7,4.6h0.1h0.2c1.9-0.1,3.5-1.2,4.2-2.7V7.4c-0.3-0.6-0.7-1.1-1.2-1.4
		c-0.7-0.5-1.6-0.7-2.5-0.7c-4.3,0.1-8.5-1.1-11.9-3.4c-0.8-0.6-1.6-1.2-2.3-1.9h-10.4C682.4,3.6,685.1,6.6,688.4,8.8z"/>
	<path class="st2" d="M703.9,49.4c-1,0.7-1.5,1.9-1.5,3.1c0,2.3,2.4,4.2,4.9,4.2c0.5,0,0.9,0,1.4-0.1v-8.2c-0.8,0.1-1.6,0.2-2.4,0.2
		C705.4,48.6,704.6,48.9,703.9,49.4z"/>
	<path class="st2" d="M668.4,234c3.8,4.4,8.7,7.4,14.1,8.7c5.3,1.3,11,0.8,16.3-1.3h0.1l0.1-0.1c2.3-1,3.6-3.7,2.8-5.7
		c-0.4-1.2-1.4-2-2.6-2.3c-0.8-0.2-1.7-0.1-2.6,0.2c-4,1.6-8.3,2-12.3,1s-7.7-3.2-10.6-6.5c-0.6-0.7-1.4-1.1-2.2-1.3
		c-1.2-0.3-2.4,0-3.3,0.9C666.6,229,666.7,232.1,668.4,234z"/>
	<path class="st2" d="M702.2,112.4c-0.3,5.6,1.1,11.1,4.1,16l0.1,0.1l0.1,0.1c0.6,0.8,1.3,1.5,2.2,1.9V96.3
		c-0.2,0.2-0.3,0.3-0.5,0.5C704.6,101.4,702.5,106.8,702.2,112.4z"/>
	<path class="st2" d="M280.6,337.4l-0.1,0.1c-0.8,2.4,0.2,5.2,2.3,6c1.1,0.4,2.4,0.3,3.4-0.4c0.7-0.5,1.3-1.2,1.6-2.1
		c1.5-4.1,4.2-7.5,7.6-9.9c0.1-0.1,0.3-0.2,0.4-0.3c3.3-2.2,7.3-3.3,11.5-3.2c0.9,0,1.8-0.2,2.5-0.7c1-0.7,1.6-1.8,1.6-3
		c0-2.3-2.2-4.3-4.8-4.4c-3.8-0.1-7.4,0.6-10.8,1.9c-1.8,0.7-3.5,1.6-5.1,2.7c-4.5,3.1-8,7.6-10.1,13V337.4z"/>
	<path class="st2" d="M270,381.7c-0.5-0.7-1.3-1.3-2.1-1.5c-1.2-0.4-2.4-0.2-3.4,0.6c-1.8,1.4-2,4.4-0.5,6.5
		c3.5,4.7,8.1,8.1,13.3,9.8c5.2,1.7,10.9,1.8,16.4,0.1h0.1h0.1c0.7-0.2,1.3-0.6,1.8-1.1c1.3-1.2,2-2.9,1.5-4.4
		c-0.3-0.9-0.8-1.6-1.5-2c-0.3-0.2-0.6-0.3-0.9-0.4c-0.8-0.3-1.7-0.3-2.6,0c-4.2,1.3-8.4,1.3-12.4,0
		C276.1,387.8,272.6,385.2,270,381.7z"/>
	<path class="st2" d="M6,291c0.7-0.6,1.2-1.3,1.5-2.1c0.4-1.2,0.1-2.4-0.6-3.4c-1.4-1.8-4.4-1.9-6.4-0.3c-0.1,0.1-0.3,0.2-0.4,0.3
		v13.1C1.3,295.7,3.4,293.1,6,291z"/>
	<path class="st2" d="M214.4,307.9c0.7,0.6,1.5,1,2.3,1.1c1.2,0.1,2.4-0.3,3.2-1.2c1.4-1.6,1.1-4.4-0.5-6.1
		c-0.1-0.1-0.2-0.2-0.3-0.3c-4.3-3.9-9.5-6.3-15-6.9s-11,0.5-16,3.3l-0.1,0.1l-0.1,0.1c-1.4,0.9-2.4,2.3-2.5,3.8
		c-0.1,0.8,0,1.5,0.4,2.2c0.6,1.1,1.6,1.8,2.8,1.9c0.9,0.1,1.7-0.1,2.5-0.5c3.8-2.1,8-3,12.1-2.5C207.2,303.2,211.1,305,214.4,307.9
		z"/>
	<path class="st2" d="M149.9,321.1h0.1h0.2c2.5-0.1,4.7-2.1,4.6-4.4c0-1.2-0.6-2.3-1.6-3c-0.7-0.5-1.6-0.7-2.5-0.7
		c-4.3,0.1-8.5-1.1-11.9-3.4c-2.9-2-5.2-4.7-6.8-7.9c-0.3-0.6-0.6-1.3-0.9-2c-0.3-0.9-0.9-1.6-1.6-2c-1-0.7-2.3-0.8-3.4-0.4
		c-1.6,0.6-2.6,2.5-2.5,4.4c0,0.6,0.1,1.2,0.3,1.7c2.1,5.5,5.6,10,10.2,13.1C138.7,319.6,144.1,321.2,149.9,321.1z"/>
	<path class="st2" d="M99.9,354.3c3.1-5,4.6-10.5,4.3-16.1c-0.3-5.6-2.3-10.9-5.8-15.5l-0.1-0.1l-0.1-0.1c-1.6-2-4.5-2.5-6.2-1.2
		c-1,0.8-1.5,1.9-1.4,3.1c0,0.9,0.4,1.7,0.9,2.4c2.7,3.5,4.2,7.5,4.4,11.7c0.2,4.2-0.9,8.4-3.2,12.1c-0.5,0.8-0.7,1.6-0.7,2.5
		c0.1,1.2,0.7,2.3,1.7,3C95.7,357.4,98.5,356.5,99.9,354.3z"/>
	<path class="st2" d="M2.8,352.4c4.3-0.2,8.5,0.8,12,3s6.3,5.5,8,9.6c0.4,0.8,0.9,1.5,1.7,2c1,0.7,2.3,0.8,3.4,0.3
		c2.1-0.9,3-3.8,2-6.2c-2.3-5.4-5.9-9.8-10.6-12.8c-4.7-2.9-10.1-4.3-15.9-4H3.3H3.1c-1.2,0.1-2.2,0.6-3,1.3v6
		c0.1,0.1,0.2,0.2,0.3,0.2C1,352.2,1.9,352.4,2.8,352.4z"/>
	<path class="st2" d="M9.5,404.7v-0.1v-0.1c0.8-2.5-0.4-5.2-2.5-5.9c-1.2-0.4-2.4-0.2-3.4,0.5c-0.7,0.5-1.2,1.2-1.5,2.1
		c-0.6,1.7-1.3,3.2-2.2,4.7V418C4.4,414.7,7.6,410.1,9.5,404.7z"/>
	<path class="st2" d="M56.4,338.6c2.5-0.1,4.7-2.1,4.6-4.4c0-1.2-0.6-2.3-1.6-3c-0.7-0.5-1.6-0.7-2.5-0.7c-4.3,0.1-8.5-1.1-11.9-3.4
		s-6.1-5.8-7.6-9.9c-0.3-0.9-0.9-1.6-1.6-2c-1-0.7-2.3-0.8-3.4-0.4c-2.1,0.8-3.1,3.7-2.2,6.1c2.1,5.5,5.6,10,10.2,13.1
		s10,4.7,15.7,4.6h0.1L56.4,338.6z"/>
	<path class="st2" d="M83.1,385h0.2c2.5-0.1,4.7-2.1,4.6-4.4c0-1.2-0.6-2.3-1.6-3c-0.7-0.5-1.6-0.7-2.5-0.7
		c-4.3,0.1-8.5-1.1-11.9-3.4s-6.1-5.8-7.6-9.9c-0.3-0.9-0.9-1.6-1.6-2c-1-0.7-2.3-0.8-3.4-0.4c-2.1,0.8-3.1,3.7-2.2,6.1
		c2.1,5.5,5.6,10,10.2,13.1s10,4.7,15.7,4.6L83.1,385z"/>
	<path class="st2" d="M44.7,401.3c-0.3-4.2,0.8-8.4,3-12.2c0.5-0.8,0.7-1.7,0.6-2.5c-0.1-1.2-0.7-2.3-1.8-2.9
		c-1.9-1.2-4.8-0.2-6.1,2c-3,5-4.4,10.6-4,16.2s2.5,10.9,6.1,15.4l0.1,0.1l0.1,0.1c1.7,2,4.5,2.4,6.2,1c1-0.8,1.5-1.9,1.4-3.2
		c-0.1-0.9-0.4-1.7-1-2.4C46.6,409.5,45,405.5,44.7,401.3z"/>
	<path class="st2" d="M239.2,366c1.7,1.9,4.5,2.4,6.3,1c0.9-0.8,1.4-1.9,1.3-3.2c-0.1-0.9-0.4-1.7-1-2.4c-2.8-3.4-4.4-7.4-4.7-11.6
		s0.7-8.4,2.9-12.2c0.5-0.8,0.7-1.7,0.6-2.5c-0.1-1.2-0.8-2.3-1.8-2.9c-1.9-1.2-4.8-0.2-6.1,2.1c-2.9,5-4.3,10.7-3.9,16.2
		c0.4,5.5,2.6,10.9,6.2,15.3l0.1,0.1L239.2,366z"/>
	<path class="st2" d="M189.1,361.3c0.4-5.8-0.9-11.5-3.7-16.3s-7.1-8.5-12.3-10.9L173,334l-0.1-0.1c-2.4-1-5.1-0.1-6,2
		c-0.5,1.1-0.4,2.4,0.2,3.5c0.4,0.7,1.1,1.3,1.9,1.7c4,1.8,7.2,4.6,9.3,8.2s3.1,7.8,2.8,12.2c-0.1,0.9,0.1,1.8,0.6,2.5
		c0.6,1.1,1.7,1.7,2.9,1.8C186.8,366,189,363.9,189.1,361.3z"/>
	<path class="st2" d="M128.4,373.7c0.4,5.5,2.6,10.9,6.2,15.3l0.1,0.1l0.1,0.1c1.7,1.9,4.5,2.4,6.3,1c0.9-0.8,1.4-1.9,1.3-3.2
		c-0.1-0.9-0.4-1.7-1-2.4c-2.8-3.4-4.4-7.4-4.7-11.6s0.7-8.4,2.9-12.2c0.5-0.8,0.7-1.7,0.6-2.5c-0.1-1.2-0.8-2.3-1.8-2.9
		c-1.9-1.2-4.8-0.2-6.1,2.1C129.3,362.5,128,368.1,128.4,373.7z"/>
	<path class="st2" d="M189,402.5v-0.1v-0.1c0.6-2.5-0.8-5.1-2.9-5.7c-1.2-0.3-2.4,0-3.3,0.8c-0.7,0.6-1.1,1.3-1.4,2.2
		c-1.1,4.3-3.3,8-6.5,10.7s-7.1,4.4-11.4,4.8c-0.9,0.1-1.7,0.4-2.4,1c-0.9,0.8-1.4,2-1.3,3.2c0.2,2.3,2.7,4,5.2,3.8
		c5.8-0.5,11-2.7,15.2-6.4C184.6,413,187.6,408.1,189,402.5z"/>
	<path class="st2" d="M123.9,419.1v-0.2c0.2-2.6-1.5-5-3.7-5.2c-1.2-0.1-2.4,0.3-3.2,1.3c-0.6,0.7-0.9,1.5-1,2.4
		c-0.3,2.8-1.1,5.4-2.3,7.8h8.9C123.2,423.3,123.7,421.3,123.9,419.1L123.9,419.1z"/>
	<path class="st2" d="M245.4,403.7c1.1-0.6,1.7-1.7,1.9-2.9c0.2-2.3-1.9-4.5-4.4-4.7c-5.7-0.6-11.3,0.6-16.2,3.3
		c-4.8,2.7-8.6,6.9-11.1,12.2l-0.1,0.1l-0.1,0.1c-1,2.4-0.2,5.2,1.8,6.2c1.1,0.5,2.3,0.5,3.4-0.1c0.7-0.4,1.3-1.1,1.7-1.9
		c1.9-4,4.8-7.2,8.4-9.2c3.6-2.1,7.8-2.9,12.1-2.5C243.8,404.3,244.7,404.1,245.4,403.7z"/>
	<path class="st2" d="M293.8,30.6h0.1h0.1c0.7-0.2,1.3-0.6,1.8-1.1c1.3-1.2,2-2.9,1.5-4.4c-0.3-0.9-0.8-1.6-1.5-2l0,0
		c-0.3-0.2-0.6-0.3-0.9-0.4c-0.8-0.3-1.7-0.3-2.6,0c-4.2,1.3-8.4,1.3-12.4,0c-3.9-1.3-7.4-3.9-10-7.4c-0.5-0.7-1.3-1.3-2.1-1.5
		c-1.2-0.4-2.4-0.2-3.4,0.6c-1.8,1.4-2,4.4-0.5,6.5c3.5,4.7,8.1,8.1,13.3,9.8C282.6,32.3,288.3,32.3,293.8,30.6z"/>
	<path class="st2" d="M288.2,199.8c-3.6-2-6.5-5.2-8.4-9.2c-0.4-0.8-1-1.5-1.8-1.9c-1.1-0.6-2.3-0.6-3.4-0.1c-2,1-2.8,4-1.7,6.3
		c2.5,5.3,6.4,9.5,11.3,12.2c3.6,2,7.5,3.1,11.6,3.3c1.4,0.1,2.9,0,4.4-0.1h0.1h0.1c2.5-0.3,4.5-2.5,4.2-4.8
		c-0.1-1.2-0.8-2.3-1.9-2.9c-0.8-0.4-1.6-0.6-2.5-0.5c-1.5,0.2-3,0.2-4.5,0C293.1,201.9,290.5,201.1,288.2,199.8z"/>
	<path class="st2" d="M234.5,282.1c2.5-0.1,4.7-2.1,4.6-4.4c0-1.2-0.6-2.3-1.6-3c-0.7-0.5-1.6-0.7-2.5-0.7
		c-4.3,0.1-8.5-1.1-11.9-3.4s-6.1-5.8-7.6-9.9c-0.3-0.9-0.9-1.6-1.6-2c-1-0.7-2.3-0.8-3.4-0.4c-2.1,0.8-3.1,3.7-2.2,6.1
		c2.1,5.5,5.6,10,10.2,13.1c4.6,3.1,10,4.7,15.7,4.6h0.1L234.5,282.1z"/>
	<path class="st2" d="M4.6,233.6c0.8,1,1.9,1.5,3.1,1.4c2.2-0.2,4-2.6,3.9-5.2c-0.4-5.8-2.4-11.2-5.9-15.6c-1.6-2.1-3.6-3.8-5.7-5.3
		v11.6c2.2,3.1,3.5,6.8,3.7,10.7C3.8,232,4.1,232.9,4.6,233.6z"/>
	<path class="st2" d="M24.4,0.4c1,0.7,2.3,0.8,3.4,0.3c0.4-0.2,0.7-0.4,1-0.7h-4.9C24,0.1,24.2,0.3,24.4,0.4z"/>
	<path class="st2" d="M27.6,109.7c2.4-5.3,3.1-11.1,2.1-16.6S26,82.6,22,78.5l-0.1-0.1l-0.1-0.1c-1.9-1.8-4.8-1.9-6.3-0.3
		c-0.9,0.9-1.2,2.1-1,3.3c0.2,0.9,0.6,1.6,1.2,2.3c3.1,3.1,5.1,6.9,5.9,11S21.8,103,20,107c-0.4,0.8-0.5,1.7-0.3,2.6
		c0.2,1.2,1,2.2,2.1,2.7C23.8,113.4,26.5,112.1,27.6,109.7z"/>
	<path class="st2" d="M104.9,262.2c-0.9,0.2-1.6,0.7-2.2,1.3c-0.8,0.9-1.1,2.2-0.8,3.4c0.5,2.2,3.2,3.6,5.7,3
		c5.6-1.4,10.5-4.3,14.2-8.5c3.6-4.2,5.9-9.4,6.5-15.2v-0.1v-0.2c0.2-2.6-1.5-5-3.7-5.2c-1.2-0.1-2.4,0.3-3.2,1.2
		c-0.6,0.7-0.9,1.5-1,2.4c-0.5,4.4-2.2,8.4-4.9,11.5C112.8,259,109.1,261.2,104.9,262.2z"/>
	<path class="st2" d="M9.5,38.2L9.5,38.2V38c0.8-2.5-0.4-5.2-2.5-5.9c-1.2-0.4-2.4-0.2-3.4,0.5c-0.7,0.5-1.2,1.2-1.5,2.1
		c-0.6,1.7-1.3,3.2-2.2,4.7v12.1C4.4,48.1,7.6,43.6,9.5,38.2z"/>
	<path class="st2" d="M67.3,13.9c4.6,3.1,10,4.7,15.7,4.6h0.1h0.2c2.5-0.1,4.7-2.1,4.6-4.4c0-1.2-0.6-2.3-1.6-3
		c-0.7-0.5-1.6-0.7-2.5-0.7c-4.3,0.1-8.5-1.1-11.9-3.4c-2.6-1.8-4.7-4.1-6.2-6.9h-8.8C57,0.3,57,0.6,57.1,0.8
		C59.2,6.2,62.7,10.7,67.3,13.9z"/>
	<path class="st2" d="M52.2,135.3l0.1-0.1l0.1-0.1c1.2-2.3,0.6-5.1-1.3-6.3c-1.1-0.6-2.3-0.7-3.4-0.1c-0.8,0.4-1.4,1-1.9,1.8
		c-2.2,3.8-5.3,6.8-9,8.6s-8,2.3-12.3,1.6c-0.9-0.2-1.8,0-2.5,0.3c-1.1,0.5-1.9,1.5-2.1,2.8c-0.4,2.2,1.5,4.6,4.1,5.1
		c5.7,1,11.3,0.3,16.3-2.1C45.2,144.2,49.4,140.3,52.2,135.3z"/>
	<path class="st2" d="M256.3,245.5l-0.1,0.1l-0.1,0.1c-1.4,2.1-1.1,5.1,0.7,6.4c1,0.7,2.2,0.9,3.4,0.5c0.8-0.3,1.5-0.8,2-1.6
		c2.5-3.6,5.9-6.2,9.8-7.6c3.9-1.4,8.2-1.5,12.4-0.3c0.9,0.2,1.8,0.2,2.6-0.1c1.2-0.4,2-1.3,2.3-2.5c0.6-2.2-1.1-4.7-3.5-5.4
		c-5.6-1.6-11.3-1.4-16.5,0.4C264.2,237.3,259.7,240.8,256.3,245.5z"/>
	<path class="st2" d="M50.3,48.8c-0.1-0.9-0.4-1.7-1-2.4C46.6,43,45,39,44.7,34.8s0.8-8.4,3-12.2c0.5-0.8,0.7-1.7,0.6-2.5
		c-0.1-1.2-0.7-2.3-1.8-2.9c-1.9-1.2-4.8-0.2-6.1,2c-3,5-4.4,10.6-4,16.2s2.5,10.9,6.1,15.4l0.1,0.1l0.1,0.1c1.7,2,4.5,2.4,6.2,1
		C49.9,51.2,50.4,50.1,50.3,48.8z"/>
	<path class="st2" d="M82.2,239c-0.1-0.9-0.4-1.7-1-2.4c-2.8-3.4-4.4-7.4-4.7-11.6c-0.3-4.2,0.7-8.4,2.9-12.2
		c0.5-0.8,0.7-1.7,0.6-2.5c-0.1-1.2-0.8-2.3-1.8-2.9c-1.9-1.2-4.8-0.2-6.1,2.1c-2.9,5-4.3,10.7-3.9,16.2s2.6,10.9,6.2,15.3l0.1,0.1
		l0.1,0.1c1.7,1.9,4.5,2.4,6.3,1C81.8,241.4,82.3,240.2,82.2,239z"/>
	<path class="st2" d="M161.8,278.7c0.5-0.7,0.7-1.6,0.7-2.5c-0.2-4.4,0.9-8.6,3.2-12.1s5.6-6.2,9.6-7.9c0.8-0.3,1.5-0.9,2-1.6
		c0.7-1,0.8-2.3,0.3-3.4c-0.8-2.1-3.7-3.1-6.1-2.1c-5.4,2.2-9.8,5.8-12.8,10.5c-3,4.7-4.5,10.2-4.3,16v0.1v0.2
		c0.2,2.6,2.2,4.7,4.4,4.6C160,280.3,161.1,279.7,161.8,278.7z"/>
	<path class="st2" d="M241.9,232.7c0.9-0.8,1.4-1.9,1.3-3.2c-0.1-0.9-0.4-1.7-1-2.4c-2.8-3.4-4.4-7.4-4.7-11.6
		c-0.3-4.2,0.7-8.4,2.9-12.2c0.5-0.8,0.7-1.7,0.6-2.5c-0.1-1.2-0.8-2.3-1.8-2.9c-1.9-1.2-4.8-0.2-6.1,2.1c-2.9,5-4.3,10.7-3.9,16.2
		c0.4,5.5,2.6,10.9,6.2,15.3l0.1,0.1l0.1,0.1C237.3,233.7,240.2,234.1,241.9,232.7z"/>
	<path class="st2" d="M245.4,0.4c0.2-0.1,0.3-0.3,0.4-0.4h-6.1C241.4,1.5,243.9,1.7,245.4,0.4z"/>
	<path class="st2" d="M271.9,157c1.2-0.3,2.1-1.1,2.6-2.3c0.8-2.1-0.6-4.8-3-5.8c-5.4-2.1-11.1-2.6-16.4-1.3
		c-5.3,1.3-10.2,4.3-13.9,8.6l-0.1,0.1l-0.1,0.1c-1.6,2-1.6,4.9,0,6.4c0.9,0.8,2.1,1.1,3.3,0.8c0.8-0.2,1.6-0.7,2.2-1.4
		c2.9-3.3,6.5-5.6,10.5-6.6s8.3-0.7,12.3,1C270.2,157.1,271.1,157.2,271.9,157z"/>
	<path class="st2" d="M240.4,96.4c1.2-0.3,2.1-1.1,2.6-2.3c0.8-2.1-0.6-4.8-3-5.8c-5.4-2.1-11.1-2.6-16.4-1.3
		c-5.3,1.3-10.2,4.3-13.9,8.6l-0.1,0.1l-0.1,0.1c-1.6,2-1.6,4.9,0,6.4c0.9,0.8,2.1,1.1,3.3,0.8c0.8-0.2,1.6-0.7,2.2-1.4
		c2.9-3.3,6.5-5.6,10.5-6.6s8.3-0.7,12.3,1C238.7,96.6,239.6,96.6,240.4,96.4z"/>
	<path class="st2" d="M182.7,112c0.7,1,1.8,1.6,3,1.6c2.2,0,4.2-2.3,4.2-4.9c0-5.9-1.6-11.4-4.8-16c-3.1-4.6-7.6-8.1-13-10.1H172
		l-0.1-0.1c-2.4-0.8-5.1,0.3-5.9,2.4c-0.4,1.2-0.3,2.4,0.4,3.4c0.5,0.7,1.2,1.3,2,1.6c4.1,1.5,7.5,4.1,9.8,7.6
		c2.4,3.5,3.6,7.6,3.6,12C181.9,110.4,182.2,111.3,182.7,112z"/>
	<path class="st2" d="M224.2,146l0.1-0.1c1.5-2.1,1.3-5-0.4-6.4c-1-0.8-2.2-1-3.4-0.6c-0.8,0.3-1.5,0.8-2.1,1.5
		c-2.7,3.5-6.2,5.9-10.2,7.2c-4,1.2-8.2,1.1-12.4-0.3c-0.9-0.3-1.7-0.3-2.6-0.1c-1.2,0.4-2.1,1.2-2.4,2.4c-0.7,2.2,0.9,4.8,3.3,5.6
		c5.5,1.8,11.2,1.9,16.5,0.3C215.9,153.9,220.5,150.6,224.2,146L224.2,146z"/>
	<path class="st2" d="M128.4,7.1c0.4,5.5,2.6,10.9,6.2,15.3l0.1,0.1l0.1,0.1c1.7,1.9,4.5,2.4,6.3,1c0.9-0.8,1.4-1.9,1.3-3.2
		c-0.1-0.9-0.4-1.7-1-2.4c-2.8-3.4-4.4-7.4-4.7-11.6c-0.2-2.2,0-4.3,0.6-6.5h-8.4C128.4,2.3,128.2,4.7,128.4,7.1z"/>
	<path class="st2" d="M181.5,33c-1.1,4.3-3.3,8-6.5,10.7s-7.1,4.4-11.4,4.8c-0.9,0.1-1.7,0.4-2.4,1c-0.9,0.8-1.4,2-1.3,3.2
		c0.2,2.3,2.7,4,5.2,3.8c5.8-0.5,11-2.7,15.2-6.4c4.2-3.6,7.2-8.5,8.6-14.1v-0.1v-0.1c0.6-2.5-0.8-5.1-2.9-5.7
		c-1.2-0.3-2.4,0-3.3,0.8C182.2,31.3,181.7,32.1,181.5,33z"/>
	<path class="st2" d="M143.9,201.9c-0.5,1.1-0.5,2.4,0.1,3.5c0.4,0.8,1.1,1.4,1.9,1.8c3.9,2,7,4.9,9,8.6c2,3.7,2.8,7.9,2.3,12.3
		c-0.1,0.9,0.1,1.8,0.5,2.6c0.6,1.1,1.6,1.8,2.8,1.9c2.2,0.2,4.4-1.8,4.7-4.4c0.7-5.8-0.4-11.5-3-16.4s-6.7-8.8-11.8-11.4l-0.1-0.1
		l-0.1-0.1C147.7,199.1,144.9,199.9,143.9,201.9z"/>
	<path class="st2" d="M113.2,200.5c-0.4,0.8-0.4,1.7-0.3,2.6c0.3,1.2,1.1,2.2,2.2,2.7c2.1,0.9,4.8-0.5,5.8-2.9
		c2.3-5.4,2.8-11.1,1.7-16.6c-1.2-5.4-4-10.4-8.2-14.4l-0.1-0.1l-0.1-0.1c-1.9-1.7-4.8-1.8-6.3-0.1c-0.8,0.9-1.2,2.1-0.9,3.3
		c0.2,0.9,0.6,1.6,1.3,2.3c3.2,3,5.3,6.7,6.2,10.9C115.4,192.1,114.9,196.5,113.2,200.5z"/>
	<path class="st2" d="M182.7,197c4.1,4.2,9.1,6.9,14.5,7.9s11,0.2,16.2-2.2l0.1-0.1l0.1-0.1c2.3-1.1,3.4-3.8,2.5-5.9
		c-0.5-1.1-1.5-1.9-2.7-2.1c-0.8-0.2-1.7,0-2.5,0.3c-3.9,1.9-8.2,2.4-12.3,1.7s-7.8-2.8-10.9-5.9c-0.6-0.7-1.4-1.1-2.3-1.2
		c-1.2-0.2-2.4,0.2-3.3,1C180.7,192.1,180.9,195.2,182.7,197z"/>
	<path class="st2" d="M161.8,133.1c0.2-1.2-0.3-2.4-1.2-3.2c-1.7-1.5-4.7-1.1-6.4,0.8c-3.9,4.3-6.3,9.6-7,15.1s0.4,11.2,3,16.3
		l0.1,0.1l0.1,0.1c1.3,2.2,4,3.3,5.9,2.2c1.1-0.6,1.8-1.6,1.9-2.8c0.1-0.9-0.1-1.7-0.5-2.6c-2-3.9-2.8-8.1-2.3-12.3
		s2.3-8.1,5.2-11.4C161.3,134.7,161.6,133.9,161.8,133.1z"/>
	<path class="st2" d="M113.9,121.3c1.9-4,4.8-7.2,8.4-9.2c3.6-2.1,7.8-2.9,12.1-2.4c0.9,0.1,1.8-0.1,2.5-0.5
		c1.1-0.6,1.8-1.7,1.9-2.9c0.2-2.3-1.8-4.5-4.4-4.8c-5.7-0.6-11.3,0.5-16.2,3.3c-4.8,2.7-8.6,6.9-11.1,12.1L107,117l-0.1,0.1
		c-1,2.4-0.2,5.2,1.8,6.2c1.1,0.5,2.3,0.5,3.4-0.1C112.9,122.8,113.5,122.1,113.9,121.3z"/>
	<path class="st2" d="M65.3,80.2L65.3,80.2h-0.2c-2.5-0.6-5.1,0.7-5.6,2.9c-0.3,1.2-0.1,2.4,0.7,3.4c0.5,0.7,1.3,1.1,2.2,1.4
		c4.2,1.1,7.8,3.4,10.5,6.7c2.7,3.2,4.3,7.2,4.6,11.6c0.1,0.9,0.4,1.7,1,2.4c0.8,1,1.9,1.4,3.1,1.3c2.2-0.2,4-2.7,3.8-5.3
		c-0.5-5.8-2.6-11.2-6.2-15.5C75.6,84.8,70.8,81.7,65.3,80.2z"/>
	<path class="st2" d="M117.4,67.9c3.6-4.2,5.8-9.5,6.4-15.2v-0.1v-0.2c0.2-2.6-1.5-5-3.7-5.2c-1.2-0.1-2.4,0.3-3.2,1.3
		c-0.6,0.7-0.9,1.5-1,2.4c-0.4,4.4-2.1,8.4-4.8,11.5c-2.7,3.2-6.4,5.4-10.6,6.5c-0.9,0.2-1.6,0.7-2.2,1.3c-0.8,0.9-1.1,2.2-0.8,3.4
		c0.6,2.2,3.2,3.6,5.7,3C108.9,75.1,113.8,72.1,117.4,67.9z"/>
	<path class="st2" d="M89.6,149.3v-0.1v-0.1c0.6-2.5-0.8-5.1-2.9-5.7c-1.2-0.3-2.4,0-3.3,0.8c-0.7,0.6-1.1,1.3-1.4,2.2
		c-1.1,4.3-3.3,8-6.5,10.7s-7.1,4.4-11.4,4.8c-0.9,0.1-1.7,0.4-2.4,1c-0.9,0.8-1.4,2-1.3,3.2c0.2,2.3,2.7,4,5.2,3.8
		c5.8-0.5,11-2.7,15.2-6.4C85.2,159.8,88.2,154.9,89.6,149.3z"/>
	<path class="st2" d="M245.4,37.1c1.1-0.6,1.7-1.7,1.9-2.9c0.2-2.3-1.9-4.5-4.4-4.7c-5.7-0.6-11.3,0.6-16.2,3.3
		c-4.8,2.7-8.6,6.9-11.1,12.2l-0.1,0.1l-0.1,0.1c-1,2.4-0.2,5.2,1.8,6.2c1.1,0.5,2.3,0.5,3.4-0.1c0.7-0.4,1.3-1.1,1.7-1.9
		c1.9-4,4.8-7.2,8.4-9.2c3.6-2.1,7.8-2.9,12.1-2.5C243.8,37.7,244.7,37.6,245.4,37.1z"/>
	<path class="st2" d="M43.4,211.4c-0.1-0.9-0.4-1.7-1-2.4c-2.8-3.4-4.4-7.4-4.7-11.6c-0.3-4.2,0.7-8.4,2.9-12.2
		c0.5-0.8,0.7-1.7,0.6-2.5c-0.1-1.2-0.8-2.3-1.8-2.9c-1.9-1.2-4.8-0.2-6.1,2.1c-2.9,5-4.3,10.7-3.9,16.2s2.6,10.9,6.2,15.3l0.1,0.1
		l0.1,0.1c1.7,1.9,4.5,2.4,6.3,1C43,213.8,43.5,212.7,43.4,211.4z"/>
	<path class="st2" d="M40.9,276.4c2.5-0.1,4.7-2.1,4.6-4.4c0-1.2-0.6-2.3-1.6-3c-0.7-0.5-1.6-0.7-2.5-0.7c-4.3,0.1-8.5-1.1-11.9-3.4
		s-6.1-5.8-7.6-9.9c-0.3-0.9-0.9-1.6-1.6-2c-1-0.7-2.3-0.8-3.4-0.4c-2.1,0.8-3.1,3.7-2.2,6.1c2.1,5.5,5.6,10,10.2,13.1
		s10,4.7,15.7,4.6h0.1L40.9,276.4z"/>
	<path class="st2" d="M264.1,116.8c1.4,1.8,4.4,2,6.4,0.4c4.6-3.5,8-8.2,9.7-13.5s1.7-11,0-16.6V87v-0.1c-0.8-2.4-3.3-4-5.4-3.3
		c-1.2,0.4-2.1,1.2-2.4,2.4c-0.3,0.8-0.3,1.7,0,2.6c1.3,4.2,1.3,8.5,0,12.5s-3.8,7.5-7.3,10.2c-0.7,0.6-1.2,1.3-1.5,2.1
		C263.2,114.6,263.4,115.8,264.1,116.8z"/>
	<path class="st2" d="M258.7,312.4c1.9,1.3,4.8,0.5,6.2-1.7c1.9-2.8,3.2-5.9,4-9.1c0.5-2.3,0.8-4.6,0.8-6.9c-0.1-5.6-2-11-5.3-15.7
		l-0.1-0.1l-0.1-0.1c-1.6-2-4.4-2.6-6.2-1.3c-1,0.7-1.5,1.9-1.5,3.1c0,0.9,0.3,1.7,0.8,2.5c2.6,3.5,4,7.6,4.1,11.8
		c0,2.3-0.3,4.5-1,6.7c-0.6,1.8-1.5,3.6-2.6,5.3c-0.5,0.8-0.8,1.6-0.7,2.5C257.1,310.6,257.7,311.7,258.7,312.4z"/>
	<path class="st2" d="M69.2,303.6c0.3-0.7,0.5-1.3,0.9-2c1.6-3.2,3.9-5.9,6.8-7.9c3.4-2.3,7.5-3.5,11.9-3.5c0.9,0,1.8-0.2,2.5-0.7
		c1-0.7,1.6-1.8,1.6-3c0-2.3-2.2-4.3-4.8-4.4c-5.8-0.1-11.3,1.5-15.8,4.6s-8,7.6-10.1,13v0.1l-0.1,0.1c-0.2,0.5-0.3,1-0.3,1.6
		c-0.1,1.9,0.9,3.8,2.5,4.4c1.1,0.4,2.4,0.3,3.4-0.4C68.3,305.1,68.8,304.4,69.2,303.6z"/>
</g>
</svg>
