<?xml version="1.0" encoding="utf-8"?>
<!-- Generator: Adobe Illustrator 22.0.1, SVG Export Plug-In . SVG Version: 6.00 Build 0)  -->
<svg version="1.1" id="Layer_1" xmlns="http://www.w3.org/2000/svg" xmlns:xlink="http://www.w3.org/1999/xlink" x="0px" y="0px"
	 viewBox="0 0 708.6 425.3" style="enable-background:new 0 0 708.6 425.3;" xml:space="preserve">
<style type="text/css">
	.st0{display:none;fill:#43CEA2;}
	.st1{opacity:0.1;}
	.st2{fill:#FFFFFF;}
</style>
<rect class="st0" width="708.7" height="425.2"/>
<g class="st1">
	<polygon class="st2" points="673.5,13 657.3,0 645.6,0 669,18.7 	"/>
	<polygon class="st2" points="615.7,25.1 620.2,19.4 635.3,0 626.1,0 614.5,14.8 596,0 584.4,0 610,20.6 	"/>
	<polygon class="st2" points="648,280.3 602.9,282.1 603.2,289.4 604.4,320.6 566.5,322.1 566.8,329.4 604.7,327.9 611.9,327.6 
		611.7,320.3 610.4,289.2 648.3,287.6 	"/>
	<polygon class="st2" points="548.8,219.7 550.1,258.1 557.3,257.8 556,219.4 555.7,212.1 548.5,212.3 517.8,213.4 516.5,175 
		509.3,175.2 510.8,221 518,220.7 	"/>
	<polygon class="st2" points="697.1,376.1 708.7,384.7 708.7,375.6 701.4,370.2 	"/>
	<polygon class="st2" points="578.3,267.5 549.6,292.7 524.6,263.4 519.1,268.2 548.7,302.8 548.9,303 583,273 	"/>
	<polygon class="st2" points="594.9,170.6 567.4,206.9 567.2,207.1 603,235 607.4,229.2 577.4,205.8 600.7,175 	"/>
	<polygon class="st2" points="548.2,340 503,340.5 503.1,347.8 541,347.4 541.4,386.1 548.7,386 548.2,340.3 	"/>
	<polygon class="st2" points="649.7,28.5 649.7,35.9 687.7,35.6 694.9,35.5 694.8,28.2 694.6,0 687.4,0 687.6,28.2 	"/>
	<polygon class="st2" points="682.8,185 708.7,204.3 708.7,195.2 687,179.1 	"/>
	<polygon class="st2" points="461.2,239.3 480.9,243.1 483,243.5 484.4,236.3 480.9,235.6 462.6,232.1 	"/>
	<polygon class="st2" points="513.7,0 505.3,0 497.9,12.7 504.2,16.4 	"/>
	<polygon class="st2" points="513.7,57 495.5,70 499.7,76 517.8,63 	"/>
	<polygon class="st2" points="554.6,116.4 544.7,127.7 550.1,132.6 560,121.2 571.2,131.2 576,125.7 559.4,110.9 	"/>
	<polygon class="st2" points="666.9,275 670.5,281.4 677.8,294.6 684.1,291 676.8,277.8 689.8,270.3 686.3,263.9 	"/>
	<polygon class="st2" points="566.9,384.8 587.3,376 584.5,369.2 578.6,355.3 572,358.1 577.8,372.1 564,378 	"/>
	<polygon class="st2" points="544.7,62.4 548.6,56.2 535.9,48.2 543.8,35.3 537.7,31.4 525.9,50.5 532.1,54.4 	"/>
	<polygon class="st2" points="506.7,162.6 514.3,141.5 507.5,139 493.4,133.8 490.9,140.7 505,145.9 499.9,160.1 	"/>
	<polygon class="st2" points="582,47.2 632.5,83.8 638.4,88.1 642.6,82.1 651.3,69.8 645.4,65.5 636.7,77.9 586.2,41.3 580.3,37 
		576.1,43 554.1,74.2 559.9,78.5 	"/>
	<polygon class="st2" points="663.7,372.8 667.8,378.8 689.6,410.3 695.5,406 673.7,374.6 708.7,349.8 708.7,340.8 669.6,368.6 	"/>
	<polygon class="st2" points="629,367.4 572.7,420 562.5,408.8 557.2,413.8 567.6,425.2 577.7,425.2 628.6,377.8 638.7,389 644,384 
		633.9,372.8 	"/>
	<polygon class="st2" points="610.7,137.4 535.9,153.4 532.8,138.5 525.7,140 530.3,162 537.3,160.5 605.2,146.1 608.2,160.9 
		615.3,159.4 612.2,144.6 	"/>
	<polygon class="st2" points="544.3,5.2 551.1,2.7 550.1,0 537.4,0 527.8,3.6 530.2,10.5 	"/>
	<polygon class="st2" points="478.3,73.2 473.2,78.4 480.9,86.2 505.1,110.7 505.3,110.9 537.3,78.6 532.1,73.4 505.3,100.6 
		480.9,75.8 480.9,75.8 	"/>
	<polygon class="st2" points="657.5,412.7 663.4,417 669.8,407.8 663.9,403.5 	"/>
	<polygon class="st2" points="697.3,326.9 691.3,322.7 685,331.9 690.9,336.1 	"/>
	<polygon class="st2" points="506.7,384.4 517.6,386.1 518.8,378.9 507.8,377.1 	"/>
	
		<rect x="603.8" y="196.7" transform="matrix(3.795424e-02 -0.9993 0.9993 3.795424e-02 382.2216 801.5632)" class="st2" width="7.3" height="11.1"/>
	<polygon class="st2" points="626.6,49.5 632.8,45.8 627.2,36.1 620.9,39.8 	"/>
	<polygon class="st2" points="552.1,176.9 541.5,180.3 543.7,187.3 554.3,183.9 	"/>
	<polygon class="st2" points="684.1,151.4 673.3,148.8 671.6,155.9 682.4,158.5 	"/>
	<polygon class="st2" points="566.4,100.7 588.3,96.9 595.4,95.7 591.7,73.5 584.5,74.8 587,89.7 565.2,93.5 	"/>
	<polygon class="st2" points="651.6,305.5 636.2,321.7 631.2,327 647.2,342.6 652.2,337.3 641.4,326.8 656.8,310.6 	"/>
	<polygon class="st2" points="689.3,212.4 682.4,214.5 688.5,236.1 690.5,243.1 708.7,237.8 708.7,230.2 695.4,234.1 	"/>
	<polygon class="st2" points="676.7,64.5 669.6,65.7 673.3,87.9 674.5,95.1 696.4,91.4 695.2,84.1 680.4,86.7 	"/>
	<polygon class="st2" points="510.7,321.5 514.6,299.4 515.8,292.2 494,288.2 492.7,295.4 507.4,298.1 503.5,320.2 	"/>
	<polygon class="st2" points="496.9,278 497.2,278 503.2,232.6 496,231.7 491,269.8 480.9,268.4 453.1,264.7 452.1,271.9 
		480.9,275.8 	"/>
	<polygon class="st2" points="451.2,6.1 480.9,27.6 501.7,42.7 507.6,46.9 511.8,41 520.5,28.6 514.6,24.4 505.9,36.7 480.9,18.5 
		455.4,0.1 455.3,0 446.6,0 445.4,1.8 423.3,33.1 429.2,37.3 	"/>
	<polygon class="st2" points="594.1,258.4 670.3,252 664,174.7 656.8,175.3 662.5,245.3 593.5,251.1 	"/>
	<polygon class="st2" points="634.6,125 631.9,202.5 639.1,202.8 641.6,132.6 708.7,135 708.7,127.6 	"/>
	<polygon class="st2" points="520.7,406.4 533.2,425.2 541.9,425.2 526.7,402.3 	"/>
	<polygon class="st2" points="617.3,425.2 625.4,425.2 622.9,421.4 	"/>
	<polygon class="st2" points="324.2,155.2 362.1,153.7 369.3,153.4 369.1,146 367.8,114.9 405.7,113.4 405.4,106.1 360.3,107.9 
		360.6,115.2 361.8,146.3 323.9,147.9 	"/>
	<polygon class="st2" points="154.1,339.9 160.1,335.8 185.6,318.4 206.8,350.2 212.8,346.1 187.5,308.2 181.5,312.3 156.1,329.8 
		134.8,297.9 128.8,302.1 150.1,333.9 	"/>
	<polygon class="st2" points="260.7,127 278.9,152.1 248.3,174.9 252.6,180.8 283.2,158 289,153.7 284.8,147.8 266.6,122.7 
		297.2,99.9 292.9,94 256.5,121.1 	"/>
	<polygon class="st2" points="39.1,409.6 45.5,371.7 38.3,370.4 30.7,415.5 37.8,416.8 68.1,422 67.6,425.2 74.9,425.2 75.2,423.3 
		76.5,416.1 69.3,414.8 	"/>
	<polygon class="st2" points="352.8,324.1 360,323.5 357.1,285.2 356.5,277.9 349.3,278.4 318.7,280.8 315.8,242.5 308.6,243 
		312,288.7 319.2,288.1 349.9,285.7 	"/>
	<polygon class="st2" points="231.7,146 213.1,187.6 212.9,187.9 254,206.8 257,200.2 222.5,184.3 238.3,149 	"/>
	<polygon class="st2" points="152.2,263.1 132.5,221.9 126,225.1 142.5,259.7 108.1,276.6 111.2,283.2 151.9,263.3 	"/>
	<polygon class="st2" points="0,395.5 4.5,398.9 0,405.1 0,417.5 14.5,397.6 14.6,397.3 0,386.4 	"/>
	<polygon class="st2" points="47.6,238.3 25.1,207 19.2,211.3 45.8,248.3 46,248.6 82.5,221.6 78.2,215.7 	"/>
	<polygon class="st2" points="250.6,95.1 257.8,95.1 257.3,49.3 257.3,49 212.1,49.5 212.2,56.8 250.1,56.4 	"/>
	<polygon class="st2" points="421,0 413.2,0 406,18.6 412.7,21.3 	"/>
	<polygon class="st2" points="480.9,402.7 480.9,402.7 474.7,398.1 480.9,389.6 497.2,367.2 497.2,367.1 494.3,365 480.9,355 
		480.9,355 460.8,340 456.5,345.9 480.9,364.1 487.1,368.7 480.9,377.3 480.9,377.3 468.9,393.8 464.6,399.7 470.4,404 480.9,411.9 
		495.1,422.5 493.1,425.2 502.1,425.2 505.2,421 499.4,416.6 	"/>
	<polygon class="st2" points="423.6,203.8 423.6,203.8 425.7,200.9 450.3,166.8 444.5,162.5 422,193.6 397.3,175.2 391.5,170.8 
		387.2,176.8 369,201.8 338.5,179.1 334.2,185 364.8,207.8 370.6,212.1 374.9,206.2 393,181.1 	"/>
	<polygon class="st2" points="18.5,181.1 49,203.8 49.1,203.8 51.2,200.9 75.8,166.8 70,162.5 47.5,193.6 22.7,175.2 16.9,170.8 
		12.6,176.8 0,194.2 0,206.6 0.3,206.2 	"/>
	<polygon class="st2" points="234.8,333.2 240.4,328.6 264.1,308.7 288.2,338.4 288.3,338.3 291,336 323.1,309.1 318.5,303.5 
		289.2,328 269.6,304.1 265,298.4 259.4,303.1 235.8,322.9 211.6,293.3 206.1,298 230.2,327.6 	"/>
	<polygon class="st2" points="194.7,70.5 169.6,99.4 175,104.2 200.1,75.4 204.9,69.9 199.4,65 176.4,44.5 201.5,15.6 201.4,15.6 
		198.7,13.2 184,0 173,0 191.3,16.3 171,39.6 166.2,45.1 171.6,50 	"/>
	<polygon class="st2" points="272.8,38.6 287.2,55.7 292.7,50.9 278.3,33.8 	"/>
	<polygon class="st2" points="412.2,401.6 432.8,409.8 435.5,403 414.8,394.7 	"/>
	<polygon class="st2" points="9.5,262 0,268.8 0,277.7 13.6,268 	"/>
	<polygon class="st2" points="134.4,79.4 155.3,87.1 157.8,80.2 136.9,72.5 	"/>
	<polygon class="st2" points="149.3,287.9 170.2,295.6 172.7,288.7 151.8,281 	"/>
	<polygon class="st2" points="26.2,343.1 13.9,361.9 20,366 32.2,347.2 	"/>
	<polygon class="st2" points="399.2,147.4 392.1,126.1 385.3,128.4 392.4,149.7 	"/>
	<polygon class="st2" points="379.5,358.2 358.7,350.4 356.2,357.3 377,365.1 	"/>
	<polygon class="st2" points="452,370.5 444.2,378.5 449.3,383.7 457.1,375.7 	"/>
	<polygon class="st2" points="448.6,42.9 440.7,50.9 445.8,56.1 453.7,48.1 	"/>
	<polygon class="st2" points="480.9,163.3 483.7,160.4 480.9,157.5 478.6,155.2 462.9,171.1 468,176.3 478.6,187 480.9,184.7 
		480.9,184.7 483.7,181.8 480.9,178.9 480.9,178.9 473.2,171.1 	"/>
	<polygon class="st2" points="1.4,57.3 0,58.7 0,69.1 6.6,62.4 	"/>
	<polygon class="st2" points="6.6,83.9 0,77.2 0,87.6 1.4,89.1 	"/>
	<polygon class="st2" points="41.3,144.5 34.4,158 40.7,161.4 47.7,148 61,155 64.3,148.6 44.7,138.1 	"/>
	<polygon class="st2" points="184.1,247.3 173.3,236.8 183.7,225.9 178.4,220.8 163.1,237.1 168.3,242.1 179.1,252.6 	"/>
	<polygon class="st2" points="423,351.3 428.9,347 416.1,328.7 410.2,332.9 398,341.7 402.2,347.7 414.4,338.9 	"/>
	<polygon class="st2" points="366.8,255.8 352.1,253.4 350.9,260.6 372.8,264.3 374,257 376.4,242 369.2,240.9 	"/>
	<polygon class="st2" points="311.3,224.2 326.1,226.3 324,241.4 331.1,242.4 334.3,220.1 327.2,219.1 312.4,216.9 	"/>
	<polygon class="st2" points="75.4,28.8 75.5,21.5 60.5,21.2 60.8,6.1 53.6,6 53.2,28.4 60.4,28.6 	"/>
	<polygon class="st2" points="126.1,159.6 104.1,190.9 110,195.1 132,163.9 182.5,200.5 188.4,204.7 192.6,198.8 201.3,186.4 
		195.4,182.2 186.7,194.5 136.2,157.9 130.3,153.7 	"/>
	<polygon class="st2" points="265.7,360 272.5,357.8 270.4,350.8 265.9,336.4 259,338.6 263.5,353 204.3,372 197.4,374.2 
		199.6,381.2 211,417.9 217.9,415.7 206.5,379 	"/>
	<polygon class="st2" points="7.4,334.3 3.2,328.3 0,323.6 0,339.5 1.5,338.5 	"/>
	<polygon class="st2" points="393.3,307.2 453.8,321.3 460.9,322.9 462.5,315.8 465.9,301 458.8,299.3 455.5,314.1 395,300 
		387.9,298.4 386.3,305.5 377.8,343 384.9,344.7 	"/>
	<polygon class="st2" points="186.3,269.3 192.1,273.7 214.9,243 264.5,280.7 270.3,285.1 274.6,279.3 283.6,267.1 277.8,262.7 
		268.9,274.9 219.2,237.1 213.4,232.7 209.1,238.6 	"/>
	<polygon class="st2" points="88.2,149.5 102.8,146.6 109.9,145.2 95.5,69 110.2,66.2 108.9,59 87.1,63.2 88.4,70.4 101.5,139.4 
		86.8,142.3 	"/>
	<polygon class="st2" points="73.7,398.2 103.7,326.9 117.5,332.8 120.3,326.1 99.9,317.3 97.1,324 69.9,388.6 56.1,382.7 
		53.3,389.4 67,395.4 	"/>
	<polygon class="st2" points="247,233.1 242.6,238.9 254.5,248.1 260.2,252.6 306.5,190.8 318.5,199.9 322.8,194.1 305.2,180.5 
		300.8,186.3 258.9,242.3 	"/>
	<polygon class="st2" points="167.9,162.2 173.7,166.6 220,104.9 231.9,114 236.3,108.2 218.6,94.6 214.2,100.4 172.3,156.4 
		160.4,147.2 156,153 	"/>
	<polygon class="st2" points="269.5,394.8 263.6,390.7 250.9,409.2 256.9,413.4 273.8,425.2 286.5,425.2 261,407.3 	"/>
	<polygon class="st2" points="311,65.1 313.2,72.1 327.4,67.4 334.3,65.1 313.5,0 305.9,0 325.2,60.4 	"/>
	<polygon class="st2" points="444.5,209.1 417.3,273.7 403.6,267.7 400.7,274.4 414.5,280.4 421.1,283.3 451.2,211.9 464.9,217.9 
		467.8,211.2 447.4,202.3 	"/>
	<polygon class="st2" points="355.1,388 348.6,384.7 338.7,404.9 345.2,408.2 379,425.2 395.2,425.2 348.4,401.6 	"/>
	<polygon class="st2" points="387.8,30.6 377,20.2 392.2,3.9 388.2,0 385.9,0 371.7,15.1 366.7,20.5 382.8,36 	"/>
	<polygon class="st2" points="459.5,107.4 474.6,123.9 479.5,129.3 480.9,128 480.9,128 495.8,114 490.9,108.6 480.9,118 
		479.9,118.9 464.8,102.4 	"/>
	<polygon class="st2" points="384,389.2 368.9,372.7 363.6,377.7 378.7,394.2 383.6,399.5 399.9,384.3 395,378.9 	"/>
	<polygon class="st2" points="113.7,417.2 115.5,425.2 122.9,425.2 120.8,415.7 	"/>
	<polygon class="st2" points="47.7,304.7 59,345.3 66,343.3 55.6,306.3 85.1,297.8 92.1,295.8 90.1,288.7 81.8,258.8 118.3,248.3 
		116.3,241.3 79.8,251.8 72.8,253.8 74.8,260.8 83.2,290.7 46.7,301.2 46.7,301.3 	"/>
	<polygon class="st2" points="106.7,31.9 102.6,25.9 93.4,32.3 97.6,38.3 	"/>
	<polygon class="st2" points="74.1,114.4 63,113.4 62.4,120.7 73.4,121.7 	"/>
	<polygon class="st2" points="146.1,119.6 141.7,109.2 135.1,112.1 139.5,122.5 	"/>
	<polygon class="st2" points="71.4,202.3 82.1,199.4 80.2,192.3 69.5,195.2 	"/>
	<polygon class="st2" points="231.9,298.3 242.6,295.4 240.7,288.3 230,291.2 	"/>
	<polygon class="st2" points="297.7,297.7 294.6,286.9 287.6,289 290.8,299.7 	"/>
	<polygon class="st2" points="21,76.7 27.5,79.8 32.2,69.6 25.6,66.5 	"/>
	<polygon class="st2" points="355.8,0 344.3,0 343.3,3.6 354.1,6.5 	"/>
	<polygon class="st2" points="349.6,70.8 357.7,78.6 362.7,73.3 354.6,65.5 	"/>
	<polygon class="st2" points="139.6,401.1 147.6,408.9 152.6,403.6 144.6,395.8 	"/>
	<polygon class="st2" points="228.4,391.3 232.9,397.1 241.6,390 237.1,384.3 	"/>
	<polygon class="st2" points="175.2,342.2 183.6,349.6 188.4,344.1 180,336.7 	"/>
	<polygon class="st2" points="316.7,113.9 332.7,129.5 337.7,124.2 326.9,113.7 342.3,97.5 337.1,92.4 321.7,108.6 	"/>
	<polygon class="st2" points="125.1,54.3 140.9,38.6 146.1,33.5 130.6,17.4 125.4,22.5 135.9,33.4 120,49.1 	"/>
	<polygon class="st2" points="17.6,146.5 11.2,125 4.3,127.1 8.6,141.6 0,144.2 0,151.9 10.7,148.6 	"/>
	<polygon class="st2" points="403.7,216.9 408.2,239 415.3,237.4 410.8,215.4 409.3,208.3 387.6,212.9 389,220 	"/>
	<polygon class="st2" points="451.5,425.2 464.8,425.2 462.9,420.5 	"/>
	<polygon class="st2" points="38.3,268.4 31.1,267.7 28.9,290.1 36.1,290.8 37.6,275.7 59.7,277.9 60.4,270.6 	"/>
	<polygon class="st2" points="126.5,193.2 127.5,200.5 142.3,198.3 145.5,220.6 152.7,219.5 149.5,197.2 148.4,190 	"/>
	<polygon class="st2" points="97,379.3 97.8,386.6 166.7,378.9 171.7,425.2 179,425.2 173.1,370.9 	"/>
	<polygon class="st2" points="28.5,121.8 35,125 68.2,55.1 0,21.7 0,29.9 58.6,58.5 	"/>
	<polygon class="st2" points="381.8,65.7 444.2,96.3 414.1,159.5 420.6,162.7 453.8,92.8 384.9,59.1 	"/>
	<polygon class="st2" points="209.9,31.6 282.7,7.6 280.3,0 272.7,0 273.6,2.9 207.7,24.6 	"/>
	<polygon class="st2" points="332.8,336.4 326.8,332.2 283.8,396.4 325.6,425.2 338.4,425.2 293.8,394.4 	"/>
</g>
</svg>
